M48
INCH,TZ
VER,1
FMAT,2
DETECT,ON
ATC,ON
T1C0.0118
T2C0.0276
T3C0.0350
T4C0.0392
%
T1
X10200Y5700
X7200Y4100
X4900Y3500
X5700Y4200
X6900Y7000
X3200Y4100
X3000Y8800
X2600Y8100
X3000Y3000
X2500Y8900
X6500Y12400
X3800Y6700
X900Y7600
X2200Y4200
X9400Y10900
X12500Y10500
X10800Y9800
X10900Y6800
T2
X8389Y1769
X9571
X8980
X3559
X4741
X4150
X11411Y3329
Y4511
Y3920
T3
X620Y3760
Y2760
Y760
Y1760
Y9850
Y10850
X10630Y14113
X12630
X11630
X9630
X10630Y15113
X11630
X9630
X12630Y13113
X11630
X10630
X9630
X6080Y14113
X8080
X7080
X5080
X6080Y15113
X7080
X5080
X8080Y13113
X7080
X6080
X5080
X1530Y14113
X3530
X2530
X530
X1530Y15113
X2530
X530
X3530Y13113
X2530
X1530
X530
T4
X620Y4760
Y8850
X12630Y15113
X8080
X3530
M30
