G04 Generated by Ultiboard 14.1 *
%FSLAX24Y24*%
%MOIN*%

%ADD10C,0.0001*%
%ADD11C,0.0150*%
%ADD12C,0.0100*%
%ADD13C,0.0500*%
%ADD14C,0.0236*%
%ADD15R,0.0108X0.0417*%
%ADD16C,0.0167*%
%ADD17R,0.0417X0.0108*%
%ADD18R,0.0945X0.0669*%
%ADD19C,0.0416*%
%ADD20R,0.0472X0.0433*%
%ADD21R,0.0236X0.0394*%
%ADD22C,0.0633*%
%ADD23R,0.0208X0.0208*%
%ADD24C,0.0392*%
%ADD25R,0.0617X0.0308*%
%ADD26R,0.0433X0.0472*%
%ADD27R,0.0118X0.0610*%
%ADD28R,0.0610X0.0118*%


G04 ColorRGB 00FF00 for the following layer *
%LNCopper Top*%
%LPD*%
G54D10*
G54D11*
X12200Y7200D02*
X11000Y7200D01*
X12400Y7400D02*
X12200Y7200D01*
X12400Y7400D02*
X12400Y11600D01*
X9700Y8700D02*
X9700Y10800D01*
X9498Y8498D02*
X9700Y8700D01*
X9700Y10800D02*
X10600Y11700D01*
X10600Y11700D02*
X12300Y11700D01*
X12400Y11600D01*
X10300Y7900D02*
X9600Y7900D01*
X11000Y7200D02*
X10300Y7900D01*
G54D12*
X9064Y8105D02*
X10005Y8105D01*
X10700Y8800D01*
X11300Y7800D02*
X11300Y8500D01*
X11900Y7800D02*
X12400Y7800D01*
X9064Y8498D02*
X9498Y8498D01*
X9602Y8302D02*
X10400Y9100D01*
X10700Y8800D02*
X11600Y8800D01*
X11300Y8500D02*
X11600Y8800D01*
X10400Y9100D02*
X10400Y9900D01*
X10400Y10500D02*
X11357Y10500D01*
X11300Y10557D02*
X11600Y10257D01*
X11300Y11200D02*
X11300Y10557D01*
X11900Y11200D02*
X12400Y11200D01*
X6898Y10664D02*
X6898Y11602D01*
X6200Y11700D02*
X6100Y11800D01*
X6702Y11098D02*
X6200Y11600D01*
X6200Y11700D01*
X8583Y7317D02*
X8400Y7500D01*
X8400Y8500D01*
X8600Y8700D01*
X9059Y8700D01*
X9064Y7908D02*
X8408Y7908D01*
X4536Y8105D02*
X3905Y8105D01*
X3500Y7700D01*
X3200Y8300D02*
X4535Y8300D01*
X5717Y6136D02*
X5717Y5617D01*
X5100Y5000D01*
X5700Y4800D02*
X5914Y5014D01*
X5914Y6136D01*
X9602Y8302D02*
X9064Y8302D01*
X6308Y6136D02*
X6308Y4592D01*
X6700Y4200D01*
X6700Y3000D01*
X6111Y4111D02*
X4741Y2741D01*
X4741Y1769D01*
X6111Y6136D02*
X6111Y4111D01*
X6100Y3000D02*
X6100Y1700D01*
X5100Y700D01*
X2274Y700D01*
X2274Y1527D02*
X2673Y1527D01*
X3050Y1150D02*
X3750Y1150D01*
X4150Y1550D01*
X4150Y1769D01*
X2673Y1527D02*
X3050Y1150D01*
X6898Y5198D02*
X6700Y5000D01*
X7095Y6136D02*
X7095Y5205D01*
X7300Y5000D01*
X7489Y6136D02*
X7489Y5611D01*
X7700Y5400D01*
X8800Y3600D02*
X9100Y3300D01*
X9100Y2800D01*
X8500Y2800D02*
X8200Y2500D01*
X7873Y2500D01*
X7100Y1727D01*
X7686Y5714D02*
X7900Y5500D01*
X7686Y6136D02*
X7686Y5714D01*
X8583Y7317D02*
X9883Y7317D01*
X10100Y7100D01*
X10700Y6600D02*
X11000Y6900D01*
X11000Y7200D01*
X8276Y6136D02*
X8764Y6136D01*
X8080Y6136D02*
X8080Y5720D01*
X9500Y4300D01*
X9800Y4300D01*
X7900Y4900D02*
X9571Y3229D01*
X7900Y5500D02*
X7900Y4900D01*
X9571Y3229D02*
X9571Y1769D01*
X7700Y4700D02*
X8800Y3600D01*
X7700Y5400D02*
X7700Y4700D01*
X8276Y10664D02*
X9613Y12000D01*
X7686Y10664D02*
X7686Y11086D01*
X7489Y10664D02*
X7489Y11396D01*
X7095Y10664D02*
X7095Y13003D01*
X8080Y10664D02*
X8080Y11080D01*
X4536Y7120D02*
X2780Y7120D01*
X10100Y5800D02*
X10100Y7100D01*
X10100Y5800D02*
X10200Y5700D01*
X7100Y900D02*
X7500Y500D01*
X8500Y500D01*
X8980Y980D01*
X8980Y1769D01*
X4536Y9876D02*
X4536Y12211D01*
X4536Y9680D02*
X4020Y9680D01*
X3800Y9900D01*
X3800Y11948D01*
X2610Y13138D01*
X3500Y9800D02*
X3500Y11248D01*
X3500Y9800D02*
X3817Y9483D01*
X4536Y9483D01*
X4536Y9286D02*
X3614Y9286D01*
X3300Y9600D01*
X3000Y7700D02*
X3500Y7700D01*
X7200Y4100D02*
X7300Y4200D01*
X7300Y5000D01*
X5100Y3700D02*
X5100Y5000D01*
X6898Y11602D02*
X6700Y11800D01*
X6702Y10198D02*
X6702Y11098D01*
X6702Y10198D02*
X8400Y8500D01*
X5700Y4200D02*
X5700Y4800D01*
X6898Y5198D02*
X6898Y6998D01*
X3300Y4200D02*
X3300Y4800D01*
X1800Y4500D02*
X2400Y4500D01*
X2700Y4800D01*
X2700Y5421D01*
X3026Y5747D01*
X3300Y4800D02*
X3700Y5200D01*
X3700Y5673D01*
X3774Y5747D01*
X2000Y5900D02*
X2000Y5300D01*
X1800Y5100D01*
X4000Y6200D02*
X4536Y6736D01*
X4536Y6924D01*
X2300Y4100D02*
X2300Y4500D01*
X3200Y8300D02*
X3000Y8500D01*
X3000Y8800D01*
X4100Y4600D02*
X4100Y3600D01*
X2880Y3780D02*
X3300Y4200D01*
X740Y3780D02*
X2880Y3780D01*
X4100Y3600D02*
X2900Y2400D01*
X1360Y2400D01*
X4900Y5400D02*
X4100Y4600D01*
X5200Y5400D02*
X4900Y5400D01*
X5520Y6136D02*
X5520Y5720D01*
X5200Y5400D01*
X5136Y6136D02*
X5324Y6136D01*
X3800Y4800D02*
X5136Y6136D01*
X3800Y3800D02*
X3800Y4800D01*
X3000Y3000D02*
X3800Y3800D01*
X620Y1760D02*
X720Y1760D01*
X1360Y2400D01*
X2000Y6500D02*
X1700Y6500D01*
X600Y7500D02*
X1300Y7500D01*
X2780Y7120D02*
X1050Y8850D01*
X620Y8850D01*
X1400Y8900D02*
X2983Y7317D01*
X4536Y7317D01*
X1400Y8900D02*
X1400Y10070D01*
X620Y10850D01*
X3559Y1769D02*
X3559Y2159D01*
X5100Y3700D01*
X1700Y6500D02*
X600Y6500D01*
X2200Y6500D02*
X2353Y6653D01*
X3400Y6653D01*
X2000Y6500D02*
X2200Y6500D01*
X2000Y5900D02*
X2300Y5900D01*
X2600Y6200D01*
X4000Y6200D01*
X2100Y9600D02*
X2100Y8600D01*
X3000Y7700D01*
X2500Y8900D02*
X2700Y9100D01*
X2700Y9600D01*
X4536Y8695D02*
X3805Y8695D01*
X3400Y9100D01*
X2700Y9100D01*
X9800Y3700D02*
X9800Y3400D01*
X11100Y2100D01*
X11273Y2100D01*
X3300Y10400D02*
X610Y13090D01*
X3300Y9600D02*
X3300Y10400D01*
X8080Y11080D02*
X9300Y12300D01*
X7686Y11086D02*
X9200Y12600D01*
X3500Y11248D02*
X2668Y12080D01*
X2553Y12194D01*
X1610Y13138D01*
X9613Y12000D02*
X11517Y12000D01*
X12630Y13113D01*
X9300Y12300D02*
X10817Y12300D01*
X11630Y13113D01*
X9200Y12600D02*
X10117Y12600D01*
X10630Y13113D01*
X9196Y13104D02*
X9620Y13104D01*
X7292Y11592D02*
X8130Y12430D01*
X7292Y10664D02*
X7292Y11592D01*
X8100Y12400D02*
X8100Y13093D01*
X5520Y10664D02*
X5520Y11680D01*
X5080Y12120D01*
X5080Y13113D01*
X5717Y10664D02*
X5717Y11883D01*
X5600Y12000D01*
X5600Y12633D01*
X6080Y13113D01*
X7489Y11396D02*
X9196Y13104D01*
X6700Y11800D02*
X6700Y12200D01*
X6500Y12400D01*
X3530Y13113D02*
X3623Y13113D01*
X4536Y12200D01*
X3800Y6700D02*
X3447Y6700D01*
X3400Y6653D01*
X8764Y6136D02*
X10389Y4511D01*
X11411Y4511D01*
X12100Y2100D02*
X12100Y3700D01*
X11880Y3920D01*
X11411Y3920D01*
G54D13*
X530Y14113D02*
X12630Y14113D01*
G54D14*
X10400Y11500D03*
X12400Y9700D03*
X10600Y7600D03*
X10200Y5700D03*
X7200Y4100D03*
X4900Y3500D03*
X5700Y4200D03*
X6900Y7000D03*
X2300Y4100D03*
X3200Y4100D03*
X1300Y7500D03*
X3000Y8800D03*
X2600Y8100D03*
X3000Y3000D03*
X2500Y8900D03*
X6500Y12400D03*
X3800Y6700D03*
G54D15*
X6100Y3000D03*
X6700Y3000D03*
X6100Y11800D03*
X6700Y11800D03*
X11300Y7800D03*
X11900Y7800D03*
X10100Y6600D03*
X10700Y6600D03*
X8500Y2800D03*
X9100Y2800D03*
X5100Y4800D03*
X5700Y4800D03*
X7300Y5000D03*
X6700Y5000D03*
X3300Y4800D03*
X2700Y4800D03*
X11300Y11200D03*
X11900Y11200D03*
X2100Y9600D03*
X2700Y9600D03*
G54D16*
X6046Y2792D02*
X6154Y2792D01*
X6154Y3208D01*
X6046Y3208D01*
X6046Y2792D01*D02*
X6646Y2792D02*
X6754Y2792D01*
X6754Y3208D01*
X6646Y3208D01*
X6646Y2792D01*D02*
X10192Y9846D02*
X10608Y9846D01*
X10608Y9954D01*
X10192Y9954D01*
X10192Y9846D01*D02*
X10192Y10446D02*
X10608Y10446D01*
X10608Y10554D01*
X10192Y10554D01*
X10192Y10446D01*D02*
X6046Y11592D02*
X6154Y11592D01*
X6154Y12008D01*
X6046Y12008D01*
X6046Y11592D01*D02*
X6646Y11592D02*
X6754Y11592D01*
X6754Y12008D01*
X6646Y12008D01*
X6646Y11592D01*D02*
X11246Y7592D02*
X11354Y7592D01*
X11354Y8008D01*
X11246Y8008D01*
X11246Y7592D01*D02*
X11846Y7592D02*
X11954Y7592D01*
X11954Y8008D01*
X11846Y8008D01*
X11846Y7592D01*D02*
X10046Y6392D02*
X10154Y6392D01*
X10154Y6808D01*
X10046Y6808D01*
X10046Y6392D01*D02*
X10646Y6392D02*
X10754Y6392D01*
X10754Y6808D01*
X10646Y6808D01*
X10646Y6392D01*D02*
X8446Y2592D02*
X8554Y2592D01*
X8554Y3008D01*
X8446Y3008D01*
X8446Y2592D01*D02*
X9046Y2592D02*
X9154Y2592D01*
X9154Y3008D01*
X9046Y3008D01*
X9046Y2592D01*D02*
X5046Y4592D02*
X5154Y4592D01*
X5154Y5008D01*
X5046Y5008D01*
X5046Y4592D01*D02*
X5646Y4592D02*
X5754Y4592D01*
X5754Y5008D01*
X5646Y5008D01*
X5646Y4592D01*D02*
X2992Y7646D02*
X3408Y7646D01*
X3408Y7754D01*
X2992Y7754D01*
X2992Y7646D01*D02*
X2992Y8246D02*
X3408Y8246D01*
X3408Y8354D01*
X2992Y8354D01*
X2992Y8246D01*D02*
X9592Y3646D02*
X10008Y3646D01*
X10008Y3754D01*
X9592Y3754D01*
X9592Y3646D01*D02*
X9592Y4246D02*
X10008Y4246D01*
X10008Y4354D01*
X9592Y4354D01*
X9592Y4246D01*D02*
X7246Y4792D02*
X7354Y4792D01*
X7354Y5208D01*
X7246Y5208D01*
X7246Y4792D01*D02*
X6646Y4792D02*
X6754Y4792D01*
X6754Y5208D01*
X6646Y5208D01*
X6646Y4792D01*D02*
X1592Y4446D02*
X2008Y4446D01*
X2008Y4554D01*
X1592Y4554D01*
X1592Y4446D01*D02*
X1592Y5046D02*
X2008Y5046D01*
X2008Y5154D01*
X1592Y5154D01*
X1592Y5046D01*D02*
X3246Y4592D02*
X3354Y4592D01*
X3354Y5008D01*
X3246Y5008D01*
X3246Y4592D01*D02*
X2646Y4592D02*
X2754Y4592D01*
X2754Y5008D01*
X2646Y5008D01*
X2646Y4592D01*D02*
X1792Y6446D02*
X2208Y6446D01*
X2208Y6554D01*
X1792Y6554D01*
X1792Y6446D01*D02*
X1792Y5846D02*
X2208Y5846D01*
X2208Y5954D01*
X1792Y5954D01*
X1792Y5846D01*D02*
X11246Y10992D02*
X11354Y10992D01*
X11354Y11408D01*
X11246Y11408D01*
X11246Y10992D01*D02*
X11846Y10992D02*
X11954Y10992D01*
X11954Y11408D01*
X11846Y11408D01*
X11846Y10992D01*D02*
X292Y6346D02*
X908Y6346D01*
X908Y6654D01*
X292Y6654D01*
X292Y6346D01*D02*
X292Y7346D02*
X908Y7346D01*
X908Y7654D01*
X292Y7654D01*
X292Y7346D01*D02*
X2046Y9392D02*
X2154Y9392D01*
X2154Y9808D01*
X2046Y9808D01*
X2046Y9392D01*D02*
X2646Y9392D02*
X2754Y9392D01*
X2754Y9808D01*
X2646Y9808D01*
X2646Y9392D01*D02*
G54D17*
X10400Y9900D03*
X10400Y10500D03*
X3200Y7700D03*
X3200Y8300D03*
X9800Y3700D03*
X9800Y4300D03*
X1800Y4500D03*
X1800Y5100D03*
X2000Y6500D03*
X2000Y5900D03*
G54D18*
X11600Y10257D03*
X11600Y8800D03*
G54D19*
X8389Y1769D03*
X9571Y1769D03*
X8980Y1769D03*
X3559Y1769D03*
X4741Y1769D03*
X4150Y1769D03*
X11411Y3329D03*
X11411Y4511D03*
X11411Y3920D03*
G54D20*
X2274Y700D03*
X2274Y1527D03*
X7100Y900D03*
X7100Y1727D03*
G54D21*
X3026Y5747D03*
X3774Y5747D03*
X3400Y6653D03*
G54D22*
X620Y3760D03*
X620Y2760D03*
X620Y760D03*
X620Y1760D03*
X620Y9850D03*
X620Y10850D03*
X10630Y14113D03*
X12630Y14113D03*
X11630Y14113D03*
X9630Y14113D03*
X10630Y15113D03*
X11630Y15113D03*
X9630Y15113D03*
X12630Y13113D03*
X11630Y13113D03*
X10630Y13113D03*
X9630Y13113D03*
X6080Y14113D03*
X8080Y14113D03*
X7080Y14113D03*
X5080Y14113D03*
X6080Y15113D03*
X7080Y15113D03*
X5080Y15113D03*
X8080Y13113D03*
X7080Y13113D03*
X6080Y13113D03*
X5080Y13113D03*
X1530Y14113D03*
X3530Y14113D03*
X2530Y14113D03*
X530Y14113D03*
X1530Y15113D03*
X2530Y15113D03*
X530Y15113D03*
X3530Y13113D03*
X2530Y13113D03*
X1530Y13113D03*
X530Y13113D03*
G54D23*
X620Y4760D03*
X620Y8850D03*
X12630Y15113D03*
X8080Y15113D03*
X3530Y15113D03*
G54D24*
X516Y4656D02*
X724Y4656D01*
X724Y4864D01*
X516Y4864D01*
X516Y4656D01*D02*
X516Y8746D02*
X724Y8746D01*
X724Y8954D01*
X516Y8954D01*
X516Y8746D01*D02*
X12526Y15009D02*
X12734Y15009D01*
X12734Y15217D01*
X12526Y15217D01*
X12526Y15009D01*D02*
X7976Y15009D02*
X8184Y15009D01*
X8184Y15217D01*
X7976Y15217D01*
X7976Y15009D01*D02*
X3426Y15009D02*
X3634Y15009D01*
X3634Y15217D01*
X3426Y15217D01*
X3426Y15009D01*D02*
G54D25*
X600Y6500D03*
X600Y7500D03*
G54D26*
X11273Y2100D03*
X12100Y2100D03*
G54D27*
X5324Y6136D03*
X5520Y6136D03*
X5717Y6136D03*
X5914Y6136D03*
X6111Y6136D03*
X6308Y6136D03*
X6505Y6136D03*
X6702Y6136D03*
X6898Y6136D03*
X7095Y6136D03*
X7292Y6136D03*
X7489Y6136D03*
X7686Y6136D03*
X7883Y6136D03*
X8080Y6136D03*
X8276Y6136D03*
X5717Y10664D03*
X5520Y10664D03*
X5324Y10664D03*
X5914Y10664D03*
X6505Y10664D03*
X6308Y10664D03*
X6111Y10664D03*
X6702Y10664D03*
X7292Y10664D03*
X7095Y10664D03*
X6898Y10664D03*
X7489Y10664D03*
X8080Y10664D03*
X7883Y10664D03*
X7686Y10664D03*
X8276Y10664D03*
G54D28*
X4536Y7317D03*
X4536Y7120D03*
X4536Y6924D03*
X9064Y6924D03*
X9064Y7120D03*
X9064Y7317D03*
X4536Y7514D03*
X4536Y8105D03*
X4536Y7908D03*
X4536Y7711D03*
X9064Y7514D03*
X9064Y7711D03*
X9064Y7908D03*
X9064Y8105D03*
X4536Y8302D03*
X4536Y8892D03*
X4536Y8695D03*
X4536Y8498D03*
X9064Y8302D03*
X9064Y8498D03*
X9064Y8695D03*
X9064Y8892D03*
X4536Y9089D03*
X4536Y9680D03*
X4536Y9483D03*
X4536Y9286D03*
X9064Y9089D03*
X9064Y9286D03*
X9064Y9483D03*
X9064Y9680D03*
X4536Y9876D03*
X9064Y9876D03*

M02*
