G04 Generated by Ultiboard 14.1 *
%FSLAX24Y24*%
%MOIN*%

%ADD10C,0.0001*%
%ADD11C,0.0100*%
%ADD12C,0.0416*%
%ADD13C,0.0633*%
%ADD14R,0.0208X0.0208*%
%ADD15C,0.0392*%
%ADD16C,0.0236*%


G04 ColorRGB 0000FF for the following layer *
%LNCopper Bottom*%
%LPD*%
G54D10*
G36*
X13135Y151D02*
X13135Y151D01*
X51Y151D01*
X51Y15597D01*
X13135Y15597D01*
X13135Y151D01*
D02*
G37*
%LPC*%
G36*
X9198Y13262D02*
G75*
D01*
G03X9198Y13262I432J-149*
G01*
D02*
G37*
G36*
X9198Y14262D02*
G75*
D01*
G03X9198Y14262I432J-149*
G01*
D02*
G37*
G36*
X9081Y13700D02*
G74*
D01*
G03X9028Y13828I181J0*
G01*
X9028Y13828D01*
X8615Y14241D01*
G74*
D01*
G03X8500Y14294I128J128*
G01*
G75*
D01*
G03X8469Y13875I-420J-181*
G01*
X8469Y13875D01*
X8719Y13625D01*
X8719Y11400D01*
G75*
D01*
G03X8772Y11272I181J0*
G01*
X8772Y11272D01*
X9152Y10892D01*
G75*
D01*
G03X9408Y11148I248J8*
G01*
X9408Y11148D01*
X9081Y11475D01*
X9081Y13700D01*
D02*
G37*
G36*
X7381Y3930D02*
G75*
D01*
G03X7019Y3930I-181J170*
G01*
X7019Y3930D01*
X7019Y3681D01*
X5070Y3681D01*
G75*
D01*
G03X4730Y3681I-170J-181*
G01*
X4730Y3681D01*
X3875Y3681D01*
X3448Y4108D01*
G74*
D01*
G03X3208Y4348I248J8*
G01*
X3208Y4348D01*
X2581Y4975D01*
X2581Y7825D01*
X2608Y7852D01*
G75*
D01*
G03X2352Y8108I-8J248*
G01*
X2352Y8108D01*
X2272Y8028D01*
G75*
D01*
G03X2219Y7900I128J-128*
G01*
X2219Y7900D01*
X2219Y4900D01*
G75*
D01*
G03X2272Y4772I181J0*
G01*
X2272Y4772D01*
X2952Y4092D01*
G74*
D01*
G03X3192Y3852I248J8*
G01*
X3192Y3852D01*
X3672Y3372D01*
G75*
D01*
G03X3800Y3319I128J128*
G01*
X3800Y3319D01*
X4730Y3319D01*
G75*
D01*
G03X5070Y3319I170J181*
G01*
X5070Y3319D01*
X8209Y3319D01*
X8209Y2078D01*
G75*
D01*
G03X8685Y1567I180J-309*
G01*
G74*
D01*
G03X8853Y1434I295J202*
G01*
X8853Y1434D01*
X8853Y1642D01*
X8724Y1642D01*
G75*
D01*
G03X8724Y1896I-335J127*
G01*
X8724Y1896D01*
X8853Y1896D01*
X8853Y2103D01*
G74*
D01*
G03X8685Y1971I127J334*
G01*
G74*
D01*
G03X8570Y2078I296J202*
G01*
X8570Y2078D01*
X8570Y3319D01*
X10000Y3319D01*
G74*
D01*
G03X10128Y3372I0J181*
G01*
X10128Y3372D01*
X10200Y3444D01*
X10443Y3202D01*
G75*
D01*
G03X10571Y3149I128J127*
G01*
X10571Y3149D01*
X11102Y3149D01*
G75*
D01*
G03X11613Y3625I309J180*
G01*
G74*
D01*
G03X11746Y3793I202J295*
G01*
X11746Y3793D01*
X11538Y3793D01*
X11538Y3664D01*
G75*
D01*
G03X11284Y3664I-127J-335*
G01*
X11284Y3664D01*
X11284Y3793D01*
X11077Y3793D01*
G74*
D01*
G03X11209Y3625I334J127*
G01*
G74*
D01*
G03X11102Y3510I202J296*
G01*
X11102Y3510D01*
X10645Y3510D01*
X10381Y3775D01*
X10381Y5530D01*
G75*
D01*
G03X10019Y5530I-181J170*
G01*
X10019Y5530D01*
X10019Y3775D01*
X9925Y3681D01*
X7381Y3681D01*
X7381Y3930D01*
D02*
G37*
G36*
X9107Y2103D02*
X9107Y2103D01*
X9107Y1896D01*
X9236Y1896D01*
G75*
D01*
G03X9236Y1642I335J-127*
G01*
X9236Y1642D01*
X9107Y1642D01*
X9107Y1434D01*
G74*
D01*
G03X9275Y1567I127J335*
G01*
G75*
D01*
G03X9275Y1971I296J202*
G01*
G74*
D01*
G03X9107Y2103I295J202*
G01*
D02*
G37*
G36*
X3519Y6800D02*
G75*
D01*
G03X3552Y6696I181J0*
G01*
G75*
D01*
G03X3881Y6935I248J4*
G01*
X3881Y6935D01*
X3881Y11125D01*
X4428Y11672D01*
G75*
D01*
G03X4481Y11800I-128J128*
G01*
X4481Y11800D01*
X4481Y13500D01*
G74*
D01*
G03X4428Y13628I181J0*
G01*
X4428Y13628D01*
X3985Y14071D01*
G75*
D01*
G03X3800Y13745I-455J42*
G01*
X3800Y13745D01*
X4119Y13425D01*
X4119Y11875D01*
X3572Y11328D01*
G75*
D01*
G03X3519Y11200I128J-128*
G01*
X3519Y11200D01*
X3519Y6800D01*
D02*
G37*
G36*
X13068Y15270D02*
G74*
D01*
G03X12787Y15551I334J53*
G01*
X12787Y15551D01*
X12787Y15270D01*
X13068Y15270D01*
D02*
G37*
G36*
X10173Y13113D02*
G75*
D01*
G03X10173Y13113I457J0*
G01*
D02*
G37*
G36*
X11173Y13113D02*
G75*
D01*
G03X11173Y13113I457J0*
G01*
D02*
G37*
G36*
X12173Y13113D02*
G75*
D01*
G03X12173Y13113I457J0*
G01*
D02*
G37*
G36*
X10173Y14113D02*
G75*
D01*
G03X10173Y14113I457J0*
G01*
D02*
G37*
G36*
X11173Y14113D02*
G75*
D01*
G03X11173Y14113I457J0*
G01*
D02*
G37*
G36*
X12173Y14113D02*
G75*
D01*
G03X12173Y14113I457J0*
G01*
D02*
G37*
G36*
X9468Y14686D02*
X9468Y14686D01*
X9468Y14951D01*
X9203Y14951D01*
G74*
D01*
G03X9468Y14686I427J162*
G01*
D02*
G37*
G36*
X9455Y15113D02*
G75*
D01*
G03X9455Y15113I175J0*
G01*
D02*
G37*
G36*
X10468Y14686D02*
X10468Y14686D01*
X10468Y14951D01*
X10203Y14951D01*
G74*
D01*
G03X10468Y14686I427J162*
G01*
D02*
G37*
G36*
X10057Y14951D02*
X10057Y14951D01*
X9792Y14951D01*
X9792Y14686D01*
G74*
D01*
G03X10057Y14951I162J427*
G01*
D02*
G37*
G36*
X11057Y14951D02*
X11057Y14951D01*
X10792Y14951D01*
X10792Y14686D01*
G74*
D01*
G03X11057Y14951I162J427*
G01*
D02*
G37*
G36*
X10455Y15113D02*
G75*
D01*
G03X10455Y15113I175J0*
G01*
D02*
G37*
G36*
X12057Y14951D02*
X12057Y14951D01*
X11792Y14951D01*
X11792Y14686D01*
G74*
D01*
G03X12057Y14951I162J427*
G01*
D02*
G37*
G36*
X11455Y15113D02*
G75*
D01*
G03X11455Y15113I175J0*
G01*
D02*
G37*
G36*
X11468Y14686D02*
X11468Y14686D01*
X11468Y14951D01*
X11203Y14951D01*
G74*
D01*
G03X11468Y14686I427J162*
G01*
D02*
G37*
G36*
X12434Y15113D02*
G75*
D01*
G03X12434Y15113I196J0*
G01*
D02*
G37*
G36*
X12192Y14957D02*
G74*
D01*
G03X12473Y14676I334J52*
G01*
X12473Y14676D01*
X12473Y14957D01*
X12192Y14957D01*
D02*
G37*
G36*
X12787Y14676D02*
G74*
D01*
G03X13068Y14957I53J333*
G01*
X13068Y14957D01*
X12787Y14957D01*
X12787Y14676D01*
D02*
G37*
G36*
X9203Y15275D02*
X9203Y15275D01*
X9468Y15275D01*
X9468Y15540D01*
G74*
D01*
G03X9203Y15275I162J427*
G01*
D02*
G37*
G36*
X10203Y15275D02*
X10203Y15275D01*
X10468Y15275D01*
X10468Y15540D01*
G74*
D01*
G03X10203Y15275I162J427*
G01*
D02*
G37*
G36*
X9792Y15540D02*
X9792Y15540D01*
X9792Y15275D01*
X10057Y15275D01*
G74*
D01*
G03X9792Y15540I427J162*
G01*
D02*
G37*
G36*
X10792Y15540D02*
X10792Y15540D01*
X10792Y15275D01*
X11057Y15275D01*
G74*
D01*
G03X10792Y15540I427J162*
G01*
D02*
G37*
G36*
X11792Y15540D02*
X11792Y15540D01*
X11792Y15275D01*
X12057Y15275D01*
G74*
D01*
G03X11792Y15540I427J162*
G01*
D02*
G37*
G36*
X11203Y15275D02*
X11203Y15275D01*
X11468Y15275D01*
X11468Y15540D01*
G74*
D01*
G03X11203Y15275I162J427*
G01*
D02*
G37*
G36*
X12473Y15551D02*
G74*
D01*
G03X12192Y15270I53J334*
G01*
X12192Y15270D01*
X12473Y15270D01*
X12473Y15551D01*
D02*
G37*
G36*
X11273Y3920D02*
G75*
D01*
G03X11273Y3920I138J0*
G01*
D02*
G37*
G36*
X11613Y4215D02*
G75*
D01*
G03X11209Y4215I-202J296*
G01*
G74*
D01*
G03X11077Y4047I202J295*
G01*
X11077Y4047D01*
X11284Y4047D01*
X11284Y4176D01*
G75*
D01*
G03X11538Y4176I127J335*
G01*
X11538Y4176D01*
X11538Y4047D01*
X11746Y4047D01*
G74*
D01*
G03X11613Y4215I335J127*
G01*
D02*
G37*
G36*
X6653Y15275D02*
X6653Y15275D01*
X6918Y15275D01*
X6918Y15540D01*
G74*
D01*
G03X6653Y15275I162J427*
G01*
D02*
G37*
G36*
X7507Y14951D02*
X7507Y14951D01*
X7242Y14951D01*
X7242Y14686D01*
G74*
D01*
G03X7507Y14951I162J427*
G01*
D02*
G37*
G36*
X8518Y15270D02*
G74*
D01*
G03X8237Y15551I334J53*
G01*
X8237Y15551D01*
X8237Y15270D01*
X8518Y15270D01*
D02*
G37*
G36*
X7923Y15551D02*
G74*
D01*
G03X7642Y15270I53J334*
G01*
X7642Y15270D01*
X7923Y15270D01*
X7923Y15551D01*
D02*
G37*
G36*
X8237Y14676D02*
G74*
D01*
G03X8518Y14957I53J333*
G01*
X8518Y14957D01*
X8237Y14957D01*
X8237Y14676D01*
D02*
G37*
G36*
X7884Y15113D02*
G75*
D01*
G03X7884Y15113I196J0*
G01*
D02*
G37*
G36*
X7642Y14957D02*
G74*
D01*
G03X7923Y14676I334J52*
G01*
X7923Y14676D01*
X7923Y14957D01*
X7642Y14957D01*
D02*
G37*
G36*
X6918Y14686D02*
X6918Y14686D01*
X6918Y14951D01*
X6653Y14951D01*
G74*
D01*
G03X6918Y14686I427J162*
G01*
D02*
G37*
G36*
X5653Y15275D02*
X5653Y15275D01*
X5918Y15275D01*
X5918Y15540D01*
G74*
D01*
G03X5653Y15275I162J427*
G01*
D02*
G37*
G36*
X6242Y15540D02*
X6242Y15540D01*
X6242Y15275D01*
X6507Y15275D01*
G74*
D01*
G03X6242Y15540I427J162*
G01*
D02*
G37*
G36*
X5918Y14686D02*
X5918Y14686D01*
X5918Y14951D01*
X5653Y14951D01*
G74*
D01*
G03X5918Y14686I427J162*
G01*
D02*
G37*
G36*
X6507Y14951D02*
X6507Y14951D01*
X6242Y14951D01*
X6242Y14686D01*
G74*
D01*
G03X6507Y14951I162J427*
G01*
D02*
G37*
G36*
X5905Y15113D02*
G75*
D01*
G03X5905Y15113I175J0*
G01*
D02*
G37*
G36*
X5242Y15540D02*
X5242Y15540D01*
X5242Y15275D01*
X5507Y15275D01*
G74*
D01*
G03X5242Y15540I427J162*
G01*
D02*
G37*
G36*
X4653Y15275D02*
X4653Y15275D01*
X4918Y15275D01*
X4918Y15540D01*
G74*
D01*
G03X4653Y15275I162J427*
G01*
D02*
G37*
G36*
X5507Y14951D02*
X5507Y14951D01*
X5242Y14951D01*
X5242Y14686D01*
G74*
D01*
G03X5507Y14951I162J427*
G01*
D02*
G37*
G36*
X4905Y15113D02*
G75*
D01*
G03X4905Y15113I175J0*
G01*
D02*
G37*
G36*
X4918Y14686D02*
X4918Y14686D01*
X4918Y14951D01*
X4653Y14951D01*
G74*
D01*
G03X4918Y14686I427J162*
G01*
D02*
G37*
G36*
X3373Y15551D02*
G74*
D01*
G03X3092Y15270I53J334*
G01*
X3092Y15270D01*
X3373Y15270D01*
X3373Y15551D01*
D02*
G37*
G36*
X3968Y15270D02*
G74*
D01*
G03X3687Y15551I334J53*
G01*
X3687Y15551D01*
X3687Y15270D01*
X3968Y15270D01*
D02*
G37*
G36*
X3687Y14676D02*
G74*
D01*
G03X3968Y14957I53J333*
G01*
X3968Y14957D01*
X3687Y14957D01*
X3687Y14676D01*
D02*
G37*
G36*
X3334Y15113D02*
G75*
D01*
G03X3334Y15113I196J0*
G01*
D02*
G37*
G36*
X3092Y14957D02*
G74*
D01*
G03X3373Y14676I334J52*
G01*
X3373Y14676D01*
X3373Y14957D01*
X3092Y14957D01*
D02*
G37*
G36*
X2692Y15540D02*
X2692Y15540D01*
X2692Y15275D01*
X2957Y15275D01*
G74*
D01*
G03X2692Y15540I427J162*
G01*
D02*
G37*
G36*
X2103Y15275D02*
X2103Y15275D01*
X2368Y15275D01*
X2368Y15540D01*
G74*
D01*
G03X2103Y15275I162J427*
G01*
D02*
G37*
G36*
X2957Y14951D02*
X2957Y14951D01*
X2692Y14951D01*
X2692Y14686D01*
G74*
D01*
G03X2957Y14951I162J427*
G01*
D02*
G37*
G36*
X2368Y14686D02*
X2368Y14686D01*
X2368Y14951D01*
X2103Y14951D01*
G74*
D01*
G03X2368Y14686I427J162*
G01*
D02*
G37*
G36*
X2355Y15113D02*
G75*
D01*
G03X2355Y15113I175J0*
G01*
D02*
G37*
G36*
X1692Y15540D02*
X1692Y15540D01*
X1692Y15275D01*
X1957Y15275D01*
G74*
D01*
G03X1692Y15540I427J162*
G01*
D02*
G37*
G36*
X1103Y15275D02*
X1103Y15275D01*
X1368Y15275D01*
X1368Y15540D01*
G74*
D01*
G03X1103Y15275I162J427*
G01*
D02*
G37*
G36*
X1957Y14951D02*
X1957Y14951D01*
X1692Y14951D01*
X1692Y14686D01*
G74*
D01*
G03X1957Y14951I162J427*
G01*
D02*
G37*
G36*
X1368Y14686D02*
X1368Y14686D01*
X1368Y14951D01*
X1103Y14951D01*
G74*
D01*
G03X1368Y14686I427J162*
G01*
D02*
G37*
G36*
X1355Y15113D02*
G75*
D01*
G03X1355Y15113I175J0*
G01*
D02*
G37*
G36*
X103Y15275D02*
X103Y15275D01*
X368Y15275D01*
X368Y15540D01*
G74*
D01*
G03X103Y15275I162J427*
G01*
D02*
G37*
G36*
X692Y15540D02*
X692Y15540D01*
X692Y15275D01*
X957Y15275D01*
G74*
D01*
G03X692Y15540I427J162*
G01*
D02*
G37*
G36*
X368Y14686D02*
X368Y14686D01*
X368Y14951D01*
X103Y14951D01*
G74*
D01*
G03X368Y14686I427J162*
G01*
D02*
G37*
G36*
X957Y14951D02*
X957Y14951D01*
X692Y14951D01*
X692Y14686D01*
G74*
D01*
G03X957Y14951I162J427*
G01*
D02*
G37*
G36*
X355Y15113D02*
G75*
D01*
G03X355Y15113I175J0*
G01*
D02*
G37*
G36*
X6623Y14113D02*
G75*
D01*
G03X6623Y14113I457J0*
G01*
D02*
G37*
G36*
X5623Y14113D02*
G75*
D01*
G03X5623Y14113I457J0*
G01*
D02*
G37*
G36*
X4623Y14113D02*
G75*
D01*
G03X4623Y14113I457J0*
G01*
D02*
G37*
G36*
X2073Y14113D02*
G75*
D01*
G03X2073Y14113I457J0*
G01*
D02*
G37*
G36*
X1073Y14113D02*
G75*
D01*
G03X1073Y14113I457J0*
G01*
D02*
G37*
G36*
X73Y14113D02*
G75*
D01*
G03X73Y14113I457J0*
G01*
D02*
G37*
G36*
X6623Y13113D02*
G75*
D01*
G03X6623Y13113I457J0*
G01*
D02*
G37*
G36*
X5623Y13113D02*
G75*
D01*
G03X5623Y13113I457J0*
G01*
D02*
G37*
G36*
X4623Y13113D02*
G75*
D01*
G03X4623Y13113I457J0*
G01*
D02*
G37*
G36*
X2073Y13113D02*
G75*
D01*
G03X2073Y13113I457J0*
G01*
D02*
G37*
G36*
X1073Y13113D02*
G75*
D01*
G03X1073Y13113I457J0*
G01*
D02*
G37*
G36*
X73Y13113D02*
G75*
D01*
G03X73Y13113I457J0*
G01*
D02*
G37*
G36*
X7623Y13113D02*
G75*
D01*
G03X7623Y13113I457J0*
G01*
D02*
G37*
G36*
X163Y10850D02*
G75*
D01*
G03X163Y10850I457J0*
G01*
D02*
G37*
G36*
X3073Y13113D02*
G75*
D01*
G03X3073Y13113I457J0*
G01*
D02*
G37*
G36*
X458Y9423D02*
X458Y9423D01*
X458Y9688D01*
X193Y9688D01*
G74*
D01*
G03X458Y9423I427J162*
G01*
D02*
G37*
G36*
X445Y9850D02*
G75*
D01*
G03X445Y9850I175J0*
G01*
D02*
G37*
G36*
X782Y10277D02*
X782Y10277D01*
X782Y10012D01*
X1047Y10012D01*
G74*
D01*
G03X782Y10277I427J162*
G01*
D02*
G37*
G36*
X193Y10012D02*
X193Y10012D01*
X458Y10012D01*
X458Y10277D01*
G74*
D01*
G03X193Y10012I162J427*
G01*
D02*
G37*
G36*
X1047Y9688D02*
X1047Y9688D01*
X782Y9688D01*
X782Y9423D01*
G74*
D01*
G03X1047Y9688I162J427*
G01*
D02*
G37*
G36*
X6905Y15113D02*
G75*
D01*
G03X6905Y15113I175J0*
G01*
D02*
G37*
G36*
X7242Y15540D02*
X7242Y15540D01*
X7242Y15275D01*
X7507Y15275D01*
G74*
D01*
G03X7242Y15540I427J162*
G01*
D02*
G37*
G36*
X1006Y5050D02*
X1006Y5050D01*
X1928Y5972D01*
G75*
D01*
G03X1981Y6100I-128J128*
G01*
X1981Y6100D01*
X1981Y8125D01*
X2508Y8652D01*
G75*
D01*
G03X2252Y8908I-8J248*
G01*
X2252Y8908D01*
X1672Y8328D01*
G75*
D01*
G03X1619Y8200I128J-128*
G01*
X1619Y8200D01*
X1619Y6175D01*
X646Y5202D01*
X516Y5202D01*
G75*
D01*
G03X178Y4864I0J-338*
G01*
X178Y4864D01*
X178Y4656D01*
G75*
D01*
G03X516Y4318I338J0*
G01*
X516Y4318D01*
X724Y4318D01*
G75*
D01*
G03X1062Y4656I0J338*
G01*
X1062Y4656D01*
X1062Y4864D01*
G74*
D01*
G03X1006Y5050I338J0*
G01*
D02*
G37*
G36*
X8842Y1769D02*
G75*
D01*
G03X8842Y1769I138J0*
G01*
D02*
G37*
G36*
X2752Y3008D02*
X2752Y3008D01*
X880Y1136D01*
G75*
D01*
G03X1073Y817I-260J-376*
G01*
X1073Y817D01*
X3008Y2752D01*
G74*
D01*
G03X3248Y2996I8J248*
G01*
G75*
D01*
G03X2996Y3248I-148J104*
G01*
G74*
D01*
G03X2752Y3008I4J248*
G01*
D02*
G37*
G36*
X163Y1760D02*
G75*
D01*
G03X163Y1760I457J0*
G01*
D02*
G37*
G36*
X3855Y1971D02*
G75*
D01*
G03X3855Y1567I-296J-202*
G01*
G74*
D01*
G03X4023Y1434I295J202*
G01*
X4023Y1434D01*
X4023Y1642D01*
X3894Y1642D01*
G75*
D01*
G03X3894Y1896I-335J127*
G01*
X3894Y1896D01*
X4023Y1896D01*
X4023Y2103D01*
G74*
D01*
G03X3855Y1971I127J334*
G01*
D02*
G37*
G36*
X4406Y1896D02*
G75*
D01*
G03X4406Y1642I335J-127*
G01*
X4406Y1642D01*
X4277Y1642D01*
X4277Y1434D01*
G74*
D01*
G03X4445Y1567I127J335*
G01*
G75*
D01*
G03X4445Y1971I296J202*
G01*
G74*
D01*
G03X4277Y2103I295J202*
G01*
X4277Y2103D01*
X4277Y1896D01*
X4406Y1896D01*
D02*
G37*
G36*
X1047Y2598D02*
X1047Y2598D01*
X782Y2598D01*
X782Y2333D01*
G74*
D01*
G03X1047Y2598I162J427*
G01*
D02*
G37*
G36*
X458Y2333D02*
X458Y2333D01*
X458Y2598D01*
X193Y2598D01*
G74*
D01*
G03X458Y2333I427J162*
G01*
D02*
G37*
G36*
X4012Y1769D02*
G75*
D01*
G03X4012Y1769I138J0*
G01*
D02*
G37*
G36*
X193Y2922D02*
X193Y2922D01*
X458Y2922D01*
X458Y3187D01*
G74*
D01*
G03X193Y2922I162J427*
G01*
D02*
G37*
G36*
X782Y3187D02*
X782Y3187D01*
X782Y2922D01*
X1047Y2922D01*
G74*
D01*
G03X782Y3187I427J162*
G01*
D02*
G37*
G36*
X445Y2760D02*
G75*
D01*
G03X445Y2760I175J0*
G01*
D02*
G37*
G36*
X163Y3760D02*
G75*
D01*
G03X163Y3760I457J0*
G01*
D02*
G37*
G36*
X516Y8408D02*
X516Y8408D01*
X724Y8408D01*
G75*
D01*
G03X1062Y8746I0J338*
G01*
X1062Y8746D01*
X1062Y8954D01*
G74*
D01*
G03X724Y9292I338J0*
G01*
X724Y9292D01*
X516Y9292D01*
G75*
D01*
G03X178Y8954I0J-338*
G01*
X178Y8954D01*
X178Y8746D01*
G75*
D01*
G03X516Y8408I338J0*
G01*
D02*
G37*
%LPD*%
G54D11*
X9198Y13262D02*
G75*
D01*
G03X9198Y13262I432J-149*
G01*
X9198Y14262D02*
G75*
D01*
G03X9198Y14262I432J-149*
G01*
X9081Y13700D02*
G74*
D01*
G03X9028Y13828I181J0*
G01*
X8615Y14241D01*
G74*
D01*
G03X8500Y14294I128J128*
G01*
G75*
D01*
G03X8469Y13875I-420J-181*
G01*
X8719Y13625D01*
X8719Y11400D01*
G75*
D01*
G03X8772Y11272I181J0*
G01*
X9152Y10892D01*
G75*
D01*
G03X9408Y11148I248J8*
G01*
X9081Y11475D01*
X9081Y13700D01*
X7381Y3930D02*
G75*
D01*
G03X7019Y3930I-181J170*
G01*
X7019Y3681D01*
X5070Y3681D01*
G75*
D01*
G03X4730Y3681I-170J-181*
G01*
X3875Y3681D01*
X3448Y4108D01*
G74*
D01*
G03X3208Y4348I248J8*
G01*
X2581Y4975D01*
X2581Y7825D01*
X2608Y7852D01*
G75*
D01*
G03X2352Y8108I-8J248*
G01*
X2272Y8028D01*
G75*
D01*
G03X2219Y7900I128J-128*
G01*
X2219Y4900D01*
G75*
D01*
G03X2272Y4772I181J0*
G01*
X2952Y4092D01*
G74*
D01*
G03X3192Y3852I248J8*
G01*
X3672Y3372D01*
G75*
D01*
G03X3800Y3319I128J128*
G01*
X4730Y3319D01*
G75*
D01*
G03X5070Y3319I170J181*
G01*
X8209Y3319D01*
X8209Y2078D01*
G75*
D01*
G03X8685Y1567I180J-309*
G01*
G74*
D01*
G03X8853Y1434I295J202*
G01*
X8853Y1642D01*
X8724Y1642D01*
G75*
D01*
G03X8724Y1896I-335J127*
G01*
X8853Y1896D01*
X8853Y2103D01*
G74*
D01*
G03X8685Y1971I127J334*
G01*
G74*
D01*
G03X8570Y2078I296J202*
G01*
X8570Y3319D01*
X10000Y3319D01*
G74*
D01*
G03X10128Y3372I0J181*
G01*
X10200Y3444D01*
X10443Y3202D01*
G75*
D01*
G03X10571Y3149I128J127*
G01*
X11102Y3149D01*
G75*
D01*
G03X11613Y3625I309J180*
G01*
G74*
D01*
G03X11746Y3793I202J295*
G01*
X11538Y3793D01*
X11538Y3664D01*
G75*
D01*
G03X11284Y3664I-127J-335*
G01*
X11284Y3793D01*
X11077Y3793D01*
G74*
D01*
G03X11209Y3625I334J127*
G01*
G74*
D01*
G03X11102Y3510I202J296*
G01*
X10645Y3510D01*
X10381Y3775D01*
X10381Y5530D01*
G75*
D01*
G03X10019Y5530I-181J170*
G01*
X10019Y3775D01*
X9925Y3681D01*
X7381Y3681D01*
X7381Y3930D01*
X9107Y2103D02*
X9107Y1896D01*
X9236Y1896D01*
G75*
D01*
G03X9236Y1642I335J-127*
G01*
X9107Y1642D01*
X9107Y1434D01*
G74*
D01*
G03X9275Y1567I127J335*
G01*
G75*
D01*
G03X9275Y1971I296J202*
G01*
G74*
D01*
G03X9107Y2103I295J202*
G01*
X3519Y6800D02*
G75*
D01*
G03X3552Y6696I181J0*
G01*
G75*
D01*
G03X3881Y6935I248J4*
G01*
X3881Y11125D01*
X4428Y11672D01*
G75*
D01*
G03X4481Y11800I-128J128*
G01*
X4481Y13500D01*
G74*
D01*
G03X4428Y13628I181J0*
G01*
X3985Y14071D01*
G75*
D01*
G03X3800Y13745I-455J42*
G01*
X4119Y13425D01*
X4119Y11875D01*
X3572Y11328D01*
G75*
D01*
G03X3519Y11200I128J-128*
G01*
X3519Y6800D01*
X13068Y15270D02*
G74*
D01*
G03X12787Y15551I334J53*
G01*
X12787Y15270D01*
X13068Y15270D01*
X10173Y13113D02*
G75*
D01*
G03X10173Y13113I457J0*
G01*
X11173Y13113D02*
G75*
D01*
G03X11173Y13113I457J0*
G01*
X12173Y13113D02*
G75*
D01*
G03X12173Y13113I457J0*
G01*
X10173Y14113D02*
G75*
D01*
G03X10173Y14113I457J0*
G01*
X11173Y14113D02*
G75*
D01*
G03X11173Y14113I457J0*
G01*
X12173Y14113D02*
G75*
D01*
G03X12173Y14113I457J0*
G01*
X9468Y14686D02*
X9468Y14951D01*
X9203Y14951D01*
G74*
D01*
G03X9468Y14686I427J162*
G01*
X9455Y15113D02*
G75*
D01*
G03X9455Y15113I175J0*
G01*
X10468Y14686D02*
X10468Y14951D01*
X10203Y14951D01*
G74*
D01*
G03X10468Y14686I427J162*
G01*
X10057Y14951D02*
X9792Y14951D01*
X9792Y14686D01*
G74*
D01*
G03X10057Y14951I162J427*
G01*
X11057Y14951D02*
X10792Y14951D01*
X10792Y14686D01*
G74*
D01*
G03X11057Y14951I162J427*
G01*
X10455Y15113D02*
G75*
D01*
G03X10455Y15113I175J0*
G01*
X12057Y14951D02*
X11792Y14951D01*
X11792Y14686D01*
G74*
D01*
G03X12057Y14951I162J427*
G01*
X11455Y15113D02*
G75*
D01*
G03X11455Y15113I175J0*
G01*
X11468Y14686D02*
X11468Y14951D01*
X11203Y14951D01*
G74*
D01*
G03X11468Y14686I427J162*
G01*
X12434Y15113D02*
G75*
D01*
G03X12434Y15113I196J0*
G01*
X12192Y14957D02*
G74*
D01*
G03X12473Y14676I334J52*
G01*
X12473Y14957D01*
X12192Y14957D01*
X12787Y14676D02*
G74*
D01*
G03X13068Y14957I53J333*
G01*
X12787Y14957D01*
X12787Y14676D01*
X9203Y15275D02*
X9468Y15275D01*
X9468Y15540D01*
G74*
D01*
G03X9203Y15275I162J427*
G01*
X10203Y15275D02*
X10468Y15275D01*
X10468Y15540D01*
G74*
D01*
G03X10203Y15275I162J427*
G01*
X9792Y15540D02*
X9792Y15275D01*
X10057Y15275D01*
G74*
D01*
G03X9792Y15540I427J162*
G01*
X10792Y15540D02*
X10792Y15275D01*
X11057Y15275D01*
G74*
D01*
G03X10792Y15540I427J162*
G01*
X11792Y15540D02*
X11792Y15275D01*
X12057Y15275D01*
G74*
D01*
G03X11792Y15540I427J162*
G01*
X11203Y15275D02*
X11468Y15275D01*
X11468Y15540D01*
G74*
D01*
G03X11203Y15275I162J427*
G01*
X12473Y15551D02*
G74*
D01*
G03X12192Y15270I53J334*
G01*
X12473Y15270D01*
X12473Y15551D01*
X11273Y3920D02*
G75*
D01*
G03X11273Y3920I138J0*
G01*
X11613Y4215D02*
G75*
D01*
G03X11209Y4215I-202J296*
G01*
G74*
D01*
G03X11077Y4047I202J295*
G01*
X11284Y4047D01*
X11284Y4176D01*
G75*
D01*
G03X11538Y4176I127J335*
G01*
X11538Y4047D01*
X11746Y4047D01*
G74*
D01*
G03X11613Y4215I335J127*
G01*
X6653Y15275D02*
X6918Y15275D01*
X6918Y15540D01*
G74*
D01*
G03X6653Y15275I162J427*
G01*
X7507Y14951D02*
X7242Y14951D01*
X7242Y14686D01*
G74*
D01*
G03X7507Y14951I162J427*
G01*
X8518Y15270D02*
G74*
D01*
G03X8237Y15551I334J53*
G01*
X8237Y15270D01*
X8518Y15270D01*
X7923Y15551D02*
G74*
D01*
G03X7642Y15270I53J334*
G01*
X7923Y15270D01*
X7923Y15551D01*
X8237Y14676D02*
G74*
D01*
G03X8518Y14957I53J333*
G01*
X8237Y14957D01*
X8237Y14676D01*
X7884Y15113D02*
G75*
D01*
G03X7884Y15113I196J0*
G01*
X7642Y14957D02*
G74*
D01*
G03X7923Y14676I334J52*
G01*
X7923Y14957D01*
X7642Y14957D01*
X6918Y14686D02*
X6918Y14951D01*
X6653Y14951D01*
G74*
D01*
G03X6918Y14686I427J162*
G01*
X5653Y15275D02*
X5918Y15275D01*
X5918Y15540D01*
G74*
D01*
G03X5653Y15275I162J427*
G01*
X6242Y15540D02*
X6242Y15275D01*
X6507Y15275D01*
G74*
D01*
G03X6242Y15540I427J162*
G01*
X5918Y14686D02*
X5918Y14951D01*
X5653Y14951D01*
G74*
D01*
G03X5918Y14686I427J162*
G01*
X6507Y14951D02*
X6242Y14951D01*
X6242Y14686D01*
G74*
D01*
G03X6507Y14951I162J427*
G01*
X5905Y15113D02*
G75*
D01*
G03X5905Y15113I175J0*
G01*
X5242Y15540D02*
X5242Y15275D01*
X5507Y15275D01*
G74*
D01*
G03X5242Y15540I427J162*
G01*
X4653Y15275D02*
X4918Y15275D01*
X4918Y15540D01*
G74*
D01*
G03X4653Y15275I162J427*
G01*
X5507Y14951D02*
X5242Y14951D01*
X5242Y14686D01*
G74*
D01*
G03X5507Y14951I162J427*
G01*
X4905Y15113D02*
G75*
D01*
G03X4905Y15113I175J0*
G01*
X4918Y14686D02*
X4918Y14951D01*
X4653Y14951D01*
G74*
D01*
G03X4918Y14686I427J162*
G01*
X3373Y15551D02*
G74*
D01*
G03X3092Y15270I53J334*
G01*
X3373Y15270D01*
X3373Y15551D01*
X3968Y15270D02*
G74*
D01*
G03X3687Y15551I334J53*
G01*
X3687Y15270D01*
X3968Y15270D01*
X3687Y14676D02*
G74*
D01*
G03X3968Y14957I53J333*
G01*
X3687Y14957D01*
X3687Y14676D01*
X3334Y15113D02*
G75*
D01*
G03X3334Y15113I196J0*
G01*
X3092Y14957D02*
G74*
D01*
G03X3373Y14676I334J52*
G01*
X3373Y14957D01*
X3092Y14957D01*
X2692Y15540D02*
X2692Y15275D01*
X2957Y15275D01*
G74*
D01*
G03X2692Y15540I427J162*
G01*
X2103Y15275D02*
X2368Y15275D01*
X2368Y15540D01*
G74*
D01*
G03X2103Y15275I162J427*
G01*
X2957Y14951D02*
X2692Y14951D01*
X2692Y14686D01*
G74*
D01*
G03X2957Y14951I162J427*
G01*
X2368Y14686D02*
X2368Y14951D01*
X2103Y14951D01*
G74*
D01*
G03X2368Y14686I427J162*
G01*
X2355Y15113D02*
G75*
D01*
G03X2355Y15113I175J0*
G01*
X1692Y15540D02*
X1692Y15275D01*
X1957Y15275D01*
G74*
D01*
G03X1692Y15540I427J162*
G01*
X1103Y15275D02*
X1368Y15275D01*
X1368Y15540D01*
G74*
D01*
G03X1103Y15275I162J427*
G01*
X1957Y14951D02*
X1692Y14951D01*
X1692Y14686D01*
G74*
D01*
G03X1957Y14951I162J427*
G01*
X1368Y14686D02*
X1368Y14951D01*
X1103Y14951D01*
G74*
D01*
G03X1368Y14686I427J162*
G01*
X1355Y15113D02*
G75*
D01*
G03X1355Y15113I175J0*
G01*
X103Y15275D02*
X368Y15275D01*
X368Y15540D01*
G74*
D01*
G03X103Y15275I162J427*
G01*
X692Y15540D02*
X692Y15275D01*
X957Y15275D01*
G74*
D01*
G03X692Y15540I427J162*
G01*
X368Y14686D02*
X368Y14951D01*
X103Y14951D01*
G74*
D01*
G03X368Y14686I427J162*
G01*
X957Y14951D02*
X692Y14951D01*
X692Y14686D01*
G74*
D01*
G03X957Y14951I162J427*
G01*
X355Y15113D02*
G75*
D01*
G03X355Y15113I175J0*
G01*
X6623Y14113D02*
G75*
D01*
G03X6623Y14113I457J0*
G01*
X5623Y14113D02*
G75*
D01*
G03X5623Y14113I457J0*
G01*
X4623Y14113D02*
G75*
D01*
G03X4623Y14113I457J0*
G01*
X2073Y14113D02*
G75*
D01*
G03X2073Y14113I457J0*
G01*
X1073Y14113D02*
G75*
D01*
G03X1073Y14113I457J0*
G01*
X73Y14113D02*
G75*
D01*
G03X73Y14113I457J0*
G01*
X6623Y13113D02*
G75*
D01*
G03X6623Y13113I457J0*
G01*
X5623Y13113D02*
G75*
D01*
G03X5623Y13113I457J0*
G01*
X4623Y13113D02*
G75*
D01*
G03X4623Y13113I457J0*
G01*
X2073Y13113D02*
G75*
D01*
G03X2073Y13113I457J0*
G01*
X1073Y13113D02*
G75*
D01*
G03X1073Y13113I457J0*
G01*
X73Y13113D02*
G75*
D01*
G03X73Y13113I457J0*
G01*
X7623Y13113D02*
G75*
D01*
G03X7623Y13113I457J0*
G01*
X163Y10850D02*
G75*
D01*
G03X163Y10850I457J0*
G01*
X3073Y13113D02*
G75*
D01*
G03X3073Y13113I457J0*
G01*
X458Y9423D02*
X458Y9688D01*
X193Y9688D01*
G74*
D01*
G03X458Y9423I427J162*
G01*
X445Y9850D02*
G75*
D01*
G03X445Y9850I175J0*
G01*
X782Y10277D02*
X782Y10012D01*
X1047Y10012D01*
G74*
D01*
G03X782Y10277I427J162*
G01*
X193Y10012D02*
X458Y10012D01*
X458Y10277D01*
G74*
D01*
G03X193Y10012I162J427*
G01*
X1047Y9688D02*
X782Y9688D01*
X782Y9423D01*
G74*
D01*
G03X1047Y9688I162J427*
G01*
X6905Y15113D02*
G75*
D01*
G03X6905Y15113I175J0*
G01*
X7242Y15540D02*
X7242Y15275D01*
X7507Y15275D01*
G74*
D01*
G03X7242Y15540I427J162*
G01*
X1006Y5050D02*
X1928Y5972D01*
G75*
D01*
G03X1981Y6100I-128J128*
G01*
X1981Y8125D01*
X2508Y8652D01*
G75*
D01*
G03X2252Y8908I-8J248*
G01*
X1672Y8328D01*
G75*
D01*
G03X1619Y8200I128J-128*
G01*
X1619Y6175D01*
X646Y5202D01*
X516Y5202D01*
G75*
D01*
G03X178Y4864I0J-338*
G01*
X178Y4656D01*
G75*
D01*
G03X516Y4318I338J0*
G01*
X724Y4318D01*
G75*
D01*
G03X1062Y4656I0J338*
G01*
X1062Y4864D01*
G74*
D01*
G03X1006Y5050I338J0*
G01*
X8842Y1769D02*
G75*
D01*
G03X8842Y1769I138J0*
G01*
X2752Y3008D02*
X880Y1136D01*
G75*
D01*
G03X1073Y817I-260J-376*
G01*
X3008Y2752D01*
G74*
D01*
G03X3248Y2996I8J248*
G01*
G75*
D01*
G03X2996Y3248I-148J104*
G01*
G74*
D01*
G03X2752Y3008I4J248*
G01*
X163Y1760D02*
G75*
D01*
G03X163Y1760I457J0*
G01*
X3855Y1971D02*
G75*
D01*
G03X3855Y1567I-296J-202*
G01*
G74*
D01*
G03X4023Y1434I295J202*
G01*
X4023Y1642D01*
X3894Y1642D01*
G75*
D01*
G03X3894Y1896I-335J127*
G01*
X4023Y1896D01*
X4023Y2103D01*
G74*
D01*
G03X3855Y1971I127J334*
G01*
X4406Y1896D02*
G75*
D01*
G03X4406Y1642I335J-127*
G01*
X4277Y1642D01*
X4277Y1434D01*
G74*
D01*
G03X4445Y1567I127J335*
G01*
G75*
D01*
G03X4445Y1971I296J202*
G01*
G74*
D01*
G03X4277Y2103I295J202*
G01*
X4277Y1896D01*
X4406Y1896D01*
X1047Y2598D02*
X782Y2598D01*
X782Y2333D01*
G74*
D01*
G03X1047Y2598I162J427*
G01*
X458Y2333D02*
X458Y2598D01*
X193Y2598D01*
G74*
D01*
G03X458Y2333I427J162*
G01*
X4012Y1769D02*
G75*
D01*
G03X4012Y1769I138J0*
G01*
X193Y2922D02*
X458Y2922D01*
X458Y3187D01*
G74*
D01*
G03X193Y2922I162J427*
G01*
X782Y3187D02*
X782Y2922D01*
X1047Y2922D01*
G74*
D01*
G03X782Y3187I427J162*
G01*
X445Y2760D02*
G75*
D01*
G03X445Y2760I175J0*
G01*
X163Y3760D02*
G75*
D01*
G03X163Y3760I457J0*
G01*
X516Y8408D02*
X724Y8408D01*
G75*
D01*
G03X1062Y8746I0J338*
G01*
X1062Y8954D01*
G74*
D01*
G03X724Y9292I338J0*
G01*
X516Y9292D01*
G75*
D01*
G03X178Y8954I0J-338*
G01*
X178Y8746D01*
G75*
D01*
G03X516Y8408I338J0*
G01*
X13135Y151D02*
X51Y151D01*
X51Y15597D01*
X13135Y15597D01*
X13135Y151D01*
X8389Y1769D02*
X8389Y3489D01*
X620Y760D02*
X760Y760D01*
X620Y4760D02*
X620Y4920D01*
X3700Y11200D02*
X3700Y6800D01*
X3800Y6700D01*
X4300Y11800D02*
X3700Y11200D01*
X4300Y11800D02*
X4300Y13500D01*
X3687Y14113D02*
X4300Y13500D01*
X3530Y14113D02*
X3687Y14113D01*
X8080Y14113D02*
X8487Y14113D01*
X8900Y13700D01*
X8900Y11400D01*
X9400Y10900D01*
X3800Y3500D02*
X10000Y3500D01*
X2400Y4900D02*
X3800Y3500D01*
X7200Y3500D02*
X7200Y4100D01*
X10000Y3500D02*
X10200Y3700D01*
X2400Y7900D02*
X2400Y4900D01*
X10200Y3700D02*
X10200Y5700D01*
X10200Y3700D02*
X10571Y3329D01*
X2400Y7900D02*
X2600Y8100D01*
X10571Y3329D02*
X11411Y3329D01*
X620Y4920D02*
X1800Y6100D01*
X1800Y8200D01*
X2500Y8900D01*
X760Y760D02*
X3100Y3100D01*
G54D12*
X8389Y1769D03*
X9571Y1769D03*
X8980Y1769D03*
X3559Y1769D03*
X4741Y1769D03*
X4150Y1769D03*
X11411Y3329D03*
X11411Y4511D03*
X11411Y3920D03*
G54D13*
X620Y3760D03*
X620Y2760D03*
X620Y760D03*
X620Y1760D03*
X620Y9850D03*
X620Y10850D03*
X10630Y14113D03*
X12630Y14113D03*
X11630Y14113D03*
X9630Y14113D03*
X10630Y15113D03*
X11630Y15113D03*
X9630Y15113D03*
X12630Y13113D03*
X11630Y13113D03*
X10630Y13113D03*
X9630Y13113D03*
X6080Y14113D03*
X8080Y14113D03*
X7080Y14113D03*
X5080Y14113D03*
X6080Y15113D03*
X7080Y15113D03*
X5080Y15113D03*
X8080Y13113D03*
X7080Y13113D03*
X6080Y13113D03*
X5080Y13113D03*
X1530Y14113D03*
X3530Y14113D03*
X2530Y14113D03*
X530Y14113D03*
X1530Y15113D03*
X2530Y15113D03*
X530Y15113D03*
X3530Y13113D03*
X2530Y13113D03*
X1530Y13113D03*
X530Y13113D03*
G54D14*
X620Y4760D03*
X620Y8850D03*
X12630Y15113D03*
X8080Y15113D03*
X3530Y15113D03*
G54D15*
X516Y4656D02*
X724Y4656D01*
X724Y4864D01*
X516Y4864D01*
X516Y4656D01*D02*
X516Y8746D02*
X724Y8746D01*
X724Y8954D01*
X516Y8954D01*
X516Y8746D01*D02*
X12526Y15009D02*
X12734Y15009D01*
X12734Y15217D01*
X12526Y15217D01*
X12526Y15009D01*D02*
X7976Y15009D02*
X8184Y15009D01*
X8184Y15217D01*
X7976Y15217D01*
X7976Y15009D01*D02*
X3426Y15009D02*
X3634Y15009D01*
X3634Y15217D01*
X3426Y15217D01*
X3426Y15009D01*D02*
G54D16*
X3800Y6700D03*
X9400Y10900D03*
X4900Y3500D03*
X3200Y4100D03*
X7200Y4100D03*
X10200Y5700D03*
X2600Y8100D03*
X2500Y8900D03*
X3000Y3000D03*
X3000Y8800D03*
X5700Y4200D03*
X6900Y7000D03*
X10800Y9800D03*
X6500Y12400D03*
X12500Y10500D03*
X10900Y6800D03*
X2200Y4200D03*
X900Y7600D03*

M02*
