G04 Generated by Ultiboard 14.1 *
%FSLAX24Y24*%
%MOIN*%

%ADD10C,0.0001*%
%ADD11C,0.0178*%
%ADD12C,0.0080*%
%ADD13C,0.0089*%


G04 ColorRGB FF14FF for the following layer *
%LNSilkscreen Bottom*%
%LPD*%
G54D10*
G54D11*
X11678Y10143D02*
X11678Y11286D01*
X11223Y11286D01*
X10996Y11057D01*
X10996Y10943D01*
X11223Y10714D01*
X11678Y10714D01*
X11564Y10714D02*
X10996Y10143D01*
X10654Y11286D02*
X9972Y10143D01*
X10654Y10143D02*
X9972Y11286D01*
X9516Y11057D02*
X9289Y11286D01*
X9289Y10143D01*
X9630Y10143D02*
X8948Y10143D01*
X8606Y11057D02*
X8379Y11286D01*
X8151Y11286D01*
X7924Y11057D01*
X7924Y10943D01*
X8606Y10143D01*
X7924Y10143D01*
X7924Y10257D01*
G54D12*
X11784Y8486D02*
X11670Y8371D01*
X11556Y8371D01*
X11443Y8486D01*
X11443Y8829D01*
X11556Y8943D01*
X11670Y8943D01*
X11784Y8829D01*
X11784Y8486D01*
X11556Y8486D02*
X11443Y8371D01*
X10931Y8371D02*
X11272Y8371D01*
X11272Y8657D01*
X11272Y8943D01*
X10931Y8943D01*
X11272Y8657D02*
X11044Y8657D01*
X10760Y8486D02*
X10646Y8371D01*
X10532Y8371D01*
X10419Y8486D01*
X10760Y8829D01*
X10646Y8943D01*
X10532Y8943D01*
X10419Y8829D01*
X9736Y8829D02*
X9622Y8943D01*
X9508Y8943D01*
X9395Y8829D01*
X9395Y8771D01*
X9736Y8371D01*
X9395Y8371D01*
X9395Y8429D01*
X9224Y8829D02*
X9110Y8943D01*
X8996Y8943D01*
X8883Y8829D01*
X8883Y8486D01*
X8996Y8371D01*
X9110Y8371D01*
X9224Y8486D01*
X9224Y8829D01*
X8883Y8829D02*
X9224Y8486D01*
X8655Y8829D02*
X8541Y8943D01*
X8541Y8371D01*
X8712Y8371D02*
X8371Y8371D01*
X8200Y8486D02*
X8086Y8371D01*
X7972Y8371D01*
X7859Y8486D01*
X7859Y8714D01*
X7859Y8829D01*
X7972Y8943D01*
X8086Y8943D01*
X8200Y8829D01*
X8200Y8714D01*
X8086Y8600D01*
X7972Y8600D01*
X7859Y8714D01*
G54D13*
X11780Y9718D02*
X11609Y9147D01*
X11438Y9718D01*
X10699Y9604D02*
X10585Y9718D01*
X10585Y9147D01*
X10756Y9147D02*
X10414Y9147D01*
X10073Y9147D02*
X10073Y9204D01*
X9732Y9604D02*
X9618Y9718D01*
X9504Y9718D01*
X9390Y9604D01*
X9390Y9261D01*
X9504Y9147D01*
X9618Y9147D01*
X9732Y9261D01*
X9732Y9604D01*
X9390Y9604D02*
X9732Y9261D01*

M02*
