G04 Generated by Ultiboard 14.1 *
%FSLAX24Y24*%
%MOIN*%

%ADD10C,0.0001*%
%ADD11C,0.0080*%
%ADD12C,0.0001*%
%ADD13C,0.0060*%
%ADD14C,0.0001*%
%ADD15C,0.0120*%
%ADD16C,0.0100*%
%ADD17C,0.0061*%
%ADD18C,0.0197*%
%ADD19C,0.0079*%
%ADD20C,0.0098*%
%ADD21C,0.0070*%
%ADD22C,0.02081*%
%ADD23C,0.02236*%


G04 ColorRGB FFFF00 for the following layer *
%LNSilkscreen Top*%
%LPD*%
G54D10*
G54D11*
X5763Y2067D02*
X5763Y2461D01*
X5920Y2461D01*
X5998Y2382D01*
X5998Y2343D01*
X5920Y2264D01*
X5763Y2264D01*
X5802Y2264D02*
X5998Y2067D01*
X6155Y2421D02*
X6194Y2461D01*
X6272Y2461D01*
X6351Y2382D01*
X6351Y2303D01*
X6312Y2264D01*
X6351Y2224D01*
X6351Y2146D01*
X6272Y2067D01*
X6194Y2067D01*
X6155Y2106D01*
X6194Y2264D02*
X6312Y2264D01*
X6950Y2650D02*
X5850Y2650D01*
X5850Y3350D02*
X6950Y3350D01*
X5850Y2650D02*
X5850Y3350D01*
X6950Y3350D02*
X6950Y2650D01*
X8239Y3367D02*
X8239Y3761D01*
X8396Y3761D01*
X8474Y3682D01*
X8474Y3643D01*
X8396Y3564D01*
X8239Y3564D01*
X8278Y3564D02*
X8474Y3367D01*
X8631Y3682D02*
X8709Y3761D01*
X8709Y3367D01*
X8592Y3367D02*
X8827Y3367D01*
X9350Y2450D02*
X8250Y2450D01*
X8250Y3150D02*
X9350Y3150D01*
X8250Y2450D02*
X8250Y3150D01*
X9350Y3150D02*
X9350Y2450D01*
X9134Y697D02*
X9212Y618D01*
X9291Y618D01*
X9369Y697D01*
X9369Y1012D01*
X9722Y776D02*
X9486Y776D01*
X9682Y1012D01*
X9682Y618D01*
X9643Y618D02*
X9722Y618D01*
X4134Y697D02*
X4212Y618D01*
X4291Y618D01*
X4369Y697D01*
X4369Y1012D01*
X4682Y1012D02*
X4565Y1012D01*
X4486Y933D01*
X4486Y776D01*
X4486Y697D01*
X4565Y618D01*
X4643Y618D01*
X4722Y697D01*
X4722Y776D01*
X4643Y854D01*
X4565Y854D01*
X4486Y776D01*
X9439Y4767D02*
X9439Y5161D01*
X9596Y5161D01*
X9674Y5082D01*
X9674Y5043D01*
X9596Y4964D01*
X9439Y4964D01*
X9478Y4964D02*
X9674Y4767D01*
X9792Y5082D02*
X9870Y5161D01*
X9949Y5161D01*
X10027Y5082D01*
X10027Y5043D01*
X9792Y4767D01*
X10027Y4767D01*
X10027Y4806D01*
X10150Y4550D02*
X10150Y3450D01*
X9450Y3450D02*
X9450Y4550D01*
X10150Y3450D02*
X9450Y3450D01*
X9450Y4550D02*
X10150Y4550D01*
X1120Y4510D02*
X1120Y5260D01*
X120Y5260D01*
X1120Y260D02*
X120Y260D01*
X120Y5260D01*
X1120Y260D02*
X1120Y4260D01*
X120Y8350D02*
X1120Y8350D01*
X120Y11350D02*
X1120Y11350D01*
X120Y11350D02*
X120Y9350D01*
X120Y9100D02*
X120Y8350D01*
X120Y9267D02*
X453Y9267D01*
X203Y9183D02*
X120Y9267D01*
X1120Y11350D02*
X1120Y8350D01*
X4454Y12939D02*
X4533Y13018D01*
X4533Y13096D01*
X4454Y13174D01*
X4218Y12939D01*
X4139Y13018D01*
X4139Y13096D01*
X4218Y13174D01*
X4376Y13997D02*
X4376Y14233D01*
X4218Y14115D02*
X4533Y14115D01*
X4376Y15056D02*
X4376Y15291D01*
X8954Y13039D02*
X9033Y13118D01*
X9033Y13196D01*
X8954Y13274D01*
X8718Y13039D01*
X8639Y13118D01*
X8639Y13196D01*
X8718Y13274D01*
X8876Y14097D02*
X8876Y14333D01*
X8718Y14215D02*
X9033Y14215D01*
X8876Y15156D02*
X8876Y15391D01*
X12111Y3959D02*
X12189Y3880D01*
X12268Y3880D01*
X12346Y3959D01*
X12346Y4273D01*
X12699Y4273D02*
X12464Y4273D01*
X12464Y4116D01*
X12620Y4116D01*
X12699Y4037D01*
X12699Y3959D01*
X12620Y3880D01*
X12464Y3880D01*
X13130Y12593D02*
X9130Y12593D01*
X9130Y15613D01*
X13130Y15613D01*
X13130Y12593D01*
X13130Y15613D02*
X13130Y13613D01*
X12130Y14573D02*
X12130Y15573D01*
X13130Y14573D02*
X12140Y14573D01*
X8580Y15613D02*
X8580Y13613D01*
X7580Y14573D02*
X7580Y15573D01*
X8580Y14573D02*
X7590Y14573D01*
X8580Y12593D02*
X4580Y12593D01*
X4580Y15613D01*
X8580Y15613D01*
X8580Y12593D01*
X4030Y15613D02*
X4030Y13613D01*
X3030Y14573D02*
X3030Y15573D01*
X4030Y14573D02*
X3040Y14573D01*
X4030Y12593D02*
X30Y12593D01*
X30Y15613D01*
X4030Y15613D01*
X4030Y12593D01*
X12239Y10967D02*
X12239Y11361D01*
X12396Y11361D01*
X12474Y11282D01*
X12474Y11243D01*
X12396Y11164D01*
X12239Y11164D01*
X12278Y11164D02*
X12474Y10967D01*
X12709Y10967D02*
X12709Y11164D01*
X12827Y11282D01*
X12827Y11361D01*
X12592Y11361D01*
X12592Y11282D01*
X12150Y11350D02*
X12150Y10250D01*
X11450Y10250D02*
X11450Y11350D01*
X12150Y10250D02*
X11450Y10250D01*
X11450Y11350D02*
X12150Y11350D01*
X3039Y9367D02*
X3039Y9761D01*
X3196Y9761D01*
X3274Y9682D01*
X3274Y9643D01*
X3196Y9564D01*
X3039Y9564D01*
X3078Y9564D02*
X3274Y9367D01*
X3627Y9761D02*
X3392Y9761D01*
X3392Y9603D01*
X3549Y9603D01*
X3627Y9524D01*
X3627Y9446D01*
X3549Y9367D01*
X3392Y9367D01*
X1850Y9950D02*
X2950Y9950D01*
X2950Y9250D02*
X1850Y9250D01*
X2950Y9950D02*
X2950Y9250D01*
X1850Y9250D02*
X1850Y9950D01*
X7374Y11346D02*
X7296Y11268D01*
X7217Y11268D01*
X7139Y11346D01*
X7139Y11582D01*
X7217Y11661D01*
X7296Y11661D01*
X7374Y11582D01*
X7608Y11268D02*
X7608Y11464D01*
X7726Y11582D01*
X7726Y11661D01*
X7491Y11661D01*
X7491Y11582D01*
X12140Y9060D02*
X12375Y8667D01*
X12140Y8667D02*
X12375Y9060D01*
X12531Y8982D02*
X12609Y9060D01*
X12609Y8667D01*
X12492Y8667D02*
X12727Y8667D01*
X3954Y7774D02*
X4032Y7696D01*
X4032Y7617D01*
X3954Y7539D01*
X3718Y7539D01*
X3639Y7617D01*
X3639Y7696D01*
X3718Y7774D01*
X3679Y7930D02*
X3639Y7969D01*
X3639Y8048D01*
X3718Y8126D01*
X3796Y8126D01*
X3836Y8087D01*
X3875Y8126D01*
X3954Y8126D01*
X4032Y8048D01*
X4032Y7969D01*
X3993Y7930D01*
X3836Y7969D02*
X3836Y8087D01*
X1863Y6000D02*
X2098Y6000D01*
X1980Y6157D02*
X1980Y5843D01*
X1474Y7546D02*
X1396Y7468D01*
X1317Y7468D01*
X1239Y7546D01*
X1239Y7782D01*
X1317Y7861D01*
X1396Y7861D01*
X1474Y7782D01*
X1591Y7782D02*
X1669Y7861D01*
X1748Y7861D01*
X1826Y7782D01*
X1826Y7743D01*
X1591Y7468D01*
X1826Y7468D01*
X1826Y7507D01*
X567Y7300D02*
X2233Y7300D01*
X2233Y6300D02*
X567Y6300D01*
X2233Y7300D02*
X2233Y6300D01*
X567Y6300D02*
X567Y7300D01*
X4063Y6389D02*
X4063Y6075D01*
X4141Y5996D01*
X4219Y5996D01*
X4297Y6075D01*
X4297Y6389D01*
X4415Y6310D02*
X4493Y6389D01*
X4571Y6389D01*
X4649Y6310D01*
X4649Y6271D01*
X4415Y5996D01*
X4649Y5996D01*
X4649Y6035D01*
X2774Y3946D02*
X2696Y3868D01*
X2617Y3868D01*
X2539Y3946D01*
X2539Y4182D01*
X2617Y4261D01*
X2696Y4261D01*
X2774Y4182D01*
X2930Y4182D02*
X3008Y4261D01*
X3008Y3868D01*
X2891Y3868D02*
X3126Y3868D01*
X4974Y3946D02*
X4896Y3868D01*
X4817Y3868D01*
X4739Y3946D01*
X4739Y4182D01*
X4817Y4261D01*
X4896Y4261D01*
X4974Y4182D01*
X5326Y4025D02*
X5091Y4025D01*
X5287Y4261D01*
X5287Y3868D01*
X5248Y3868D02*
X5326Y3868D01*
X2039Y2361D02*
X2039Y1967D01*
X2274Y1967D01*
X2431Y2321D02*
X2470Y2361D01*
X2549Y2361D01*
X2627Y2282D01*
X2627Y2203D01*
X2588Y2164D01*
X2627Y2124D01*
X2627Y2046D01*
X2549Y1967D01*
X2470Y1967D01*
X2431Y2006D01*
X2470Y2164D02*
X2588Y2164D01*
X6339Y661D02*
X6339Y267D01*
X6574Y267D01*
X6731Y582D02*
X6810Y661D01*
X6810Y267D01*
X6692Y267D02*
X6927Y267D01*
X10834Y1612D02*
X10834Y1218D01*
X11069Y1218D01*
X11186Y1533D02*
X11265Y1612D01*
X11343Y1612D01*
X11422Y1533D01*
X11422Y1494D01*
X11186Y1218D01*
X11422Y1218D01*
X11422Y1257D01*
X6574Y4146D02*
X6496Y4068D01*
X6417Y4068D01*
X6339Y4146D01*
X6339Y4382D01*
X6417Y4461D01*
X6496Y4461D01*
X6574Y4382D01*
X6926Y4461D02*
X6691Y4461D01*
X6691Y4304D01*
X6848Y4304D01*
X6926Y4225D01*
X6926Y4146D01*
X6848Y4068D01*
X6691Y4068D01*
X10274Y6646D02*
X10196Y6568D01*
X10117Y6568D01*
X10039Y6646D01*
X10039Y6882D01*
X10117Y6961D01*
X10196Y6961D01*
X10274Y6882D01*
X10587Y6961D02*
X10469Y6961D01*
X10391Y6882D01*
X10391Y6725D01*
X10391Y6646D01*
X10469Y6568D01*
X10548Y6568D01*
X10626Y6646D01*
X10626Y6725D01*
X10548Y6804D01*
X10469Y6804D01*
X10391Y6725D01*
X9139Y10367D02*
X9139Y10761D01*
X9296Y10761D01*
X9374Y10682D01*
X9374Y10643D01*
X9296Y10564D01*
X9139Y10564D01*
X9178Y10564D02*
X9374Y10367D01*
X9688Y10761D02*
X9570Y10761D01*
X9492Y10682D01*
X9492Y10524D01*
X9492Y10446D01*
X9570Y10367D01*
X9649Y10367D01*
X9727Y10446D01*
X9727Y10524D01*
X9649Y10603D01*
X9570Y10603D01*
X9492Y10524D01*
X9850Y11350D02*
X10950Y11350D01*
X10950Y10650D02*
X9850Y10650D01*
X10950Y11350D02*
X10950Y10650D01*
X9850Y10650D02*
X9850Y11350D01*
X12474Y7346D02*
X12396Y7268D01*
X12317Y7268D01*
X12239Y7346D01*
X12239Y7582D01*
X12317Y7661D01*
X12396Y7661D01*
X12474Y7582D01*
X12748Y7268D02*
X12669Y7268D01*
X12591Y7346D01*
X12591Y7425D01*
X12630Y7464D01*
X12591Y7504D01*
X12591Y7582D01*
X12669Y7661D01*
X12748Y7661D01*
X12826Y7582D01*
X12826Y7504D01*
X12787Y7464D01*
X12826Y7425D01*
X12826Y7346D01*
X12748Y7268D01*
X12630Y7464D02*
X12787Y7464D01*
G54D12*
G36*
X600Y5300D02*
X600Y5300D01*
X200Y5800D01*
X1100Y5800D01*
X600Y5300D01*
D02*
G37*
X200Y5800D01*
X1100Y5800D01*
X600Y5300D01*
G54D13*
X10161Y-42D02*
X7799Y-42D01*
X7799Y2320D01*
X10161Y2320D01*
X10161Y-42D01*
X5331Y-42D02*
X2969Y-42D01*
X2969Y2320D01*
X5331Y2320D01*
X5331Y-42D01*
X13222Y5101D02*
X10860Y5101D01*
X10860Y2739D01*
X13222Y2739D01*
X13222Y5101D01*
X12000Y8230D02*
X10450Y8230D01*
X10450Y9460D01*
X12000Y9460D01*
X12000Y8230D01*
G54D14*
G36*
X7800Y2300D02*
X7800Y2300D01*
X8240Y2300D01*
X7800Y1880D01*
X7800Y2300D01*
D02*
G37*
X8240Y2300D01*
X7800Y1880D01*
X7800Y2300D01*
G36*
X2970Y2300D02*
X2970Y2300D01*
X3410Y2300D01*
X2970Y1880D01*
X2970Y2300D01*
D02*
G37*
X3410Y2300D01*
X2970Y1880D01*
X2970Y2300D01*
G36*
X10880Y2740D02*
X10880Y2740D01*
X10880Y3180D01*
X11300Y2740D01*
X10880Y2740D01*
D02*
G37*
X10880Y3180D01*
X11300Y2740D01*
X10880Y2740D01*
G54D15*
X3922Y3157D02*
X3993Y3229D01*
X4136Y3229D01*
X4278Y3086D01*
X4278Y2943D01*
X4207Y2871D01*
X4278Y2800D01*
X4278Y2657D01*
X4136Y2514D01*
X3993Y2514D01*
X3922Y2586D01*
X3993Y2871D02*
X4207Y2871D01*
X10422Y1086D02*
X10564Y1229D01*
X10564Y514D01*
X10351Y514D02*
X10778Y514D01*
X11851Y5986D02*
X11993Y6129D01*
X12136Y6129D01*
X12278Y5986D01*
X12278Y5914D01*
X11851Y5414D01*
X12278Y5414D01*
X12278Y5486D01*
G54D16*
X1271Y10843D02*
X1271Y10616D01*
X1386Y10502D01*
X1443Y10502D01*
X1557Y10616D01*
X1671Y10502D01*
X1729Y10502D01*
X1843Y10616D01*
X1843Y10786D01*
X1843Y10843D01*
X1557Y10786D02*
X1557Y10616D01*
X1843Y10786D02*
X1271Y10786D01*
X1271Y10160D02*
X1614Y10160D01*
X1729Y10160D02*
X1786Y10160D01*
X1271Y9819D02*
X1614Y9819D01*
X1671Y9819D01*
X1614Y9819D02*
X1671Y9762D01*
X1671Y9648D01*
X1614Y9592D01*
X1271Y9592D01*
X1386Y8966D02*
X1271Y9080D01*
X1271Y9193D01*
X1386Y9307D01*
X1500Y9307D01*
X1614Y9193D01*
X1614Y9080D01*
X1500Y8966D01*
X1843Y8966D02*
X1271Y8966D01*
X214Y12345D02*
X328Y12460D01*
X328Y11888D01*
X157Y11888D02*
X498Y11888D01*
X669Y12345D02*
X783Y12460D01*
X896Y12460D01*
X1010Y12345D01*
X1010Y12288D01*
X669Y11888D01*
X1010Y11888D01*
X1010Y11945D01*
X3357Y12002D02*
X3471Y11888D01*
X3584Y11888D01*
X3698Y12002D01*
X3698Y12231D01*
X3698Y12345D01*
X3584Y12460D01*
X3471Y12460D01*
X3357Y12345D01*
X3357Y12231D01*
X3471Y12117D01*
X3584Y12117D01*
X3698Y12231D01*
X5084Y11888D02*
X4971Y11888D01*
X4857Y12002D01*
X4857Y12117D01*
X4914Y12174D01*
X4857Y12231D01*
X4857Y12345D01*
X4971Y12460D01*
X5084Y12460D01*
X5198Y12345D01*
X5198Y12231D01*
X5141Y12174D01*
X5198Y12117D01*
X5198Y12002D01*
X5084Y11888D01*
X4914Y12174D02*
X5141Y12174D01*
X8298Y12460D02*
X7957Y12460D01*
X7957Y12231D01*
X8184Y12231D01*
X8298Y12117D01*
X8298Y12002D01*
X8184Y11888D01*
X7957Y11888D01*
X9798Y12117D02*
X9457Y12117D01*
X9741Y12460D01*
X9741Y11888D01*
X9684Y11888D02*
X9798Y11888D01*
X12614Y12345D02*
X12728Y12460D01*
X12728Y11888D01*
X12557Y11888D02*
X12898Y11888D01*
G54D17*
X6439Y8661D02*
X6439Y8346D01*
X6518Y8267D01*
X6596Y8267D01*
X6674Y8346D01*
X6674Y8661D01*
X6831Y8582D02*
X6910Y8661D01*
X6910Y8267D01*
X6792Y8267D02*
X7027Y8267D01*
G54D18*
X5235Y9867D02*
G75*
D01*
G02X5235Y9867I98J0*
G01*
G54D19*
X4969Y10231D02*
X8631Y10231D01*
X8631Y6569D01*
X4969Y6569D01*
X4969Y10231D01*
X3971Y6072D02*
X3971Y6328D01*
X2829Y6328D02*
X2829Y6072D01*
X3971Y6072D01*
X3971Y6328D02*
X2829Y6328D01*
G54D20*
X4290Y10132D02*
G75*
D01*
G02X4290Y10132I49J0*
G01*
X2662Y5649D02*
G75*
D01*
G02X2662Y5649I49J0*
G01*
G54D21*
X5850Y12150D02*
X6950Y12150D01*
X6950Y11450D02*
X5850Y11450D01*
X5850Y12150D01*
X6950Y12150D02*
X6950Y11450D01*
X2850Y7450D02*
X2850Y8550D01*
X3550Y8550D02*
X3550Y7450D01*
X2850Y7450D01*
X2850Y8550D02*
X3550Y8550D01*
X3550Y4450D02*
X2450Y4450D01*
X2450Y5150D02*
X3550Y5150D01*
X3550Y4450D01*
X2450Y4450D02*
X2450Y5150D01*
X4850Y5150D02*
X5950Y5150D01*
X5950Y4450D02*
X4850Y4450D01*
X4850Y5150D01*
X5950Y5150D02*
X5950Y4450D01*
X7550Y4650D02*
X6450Y4650D01*
X6450Y5350D02*
X7550Y5350D01*
X7550Y4650D01*
X6450Y4650D02*
X6450Y5350D01*
X9650Y7750D02*
X10750Y7750D01*
X10750Y7050D02*
X9650Y7050D01*
X9650Y7750D01*
X10750Y7750D02*
X10750Y7050D01*
X12150Y7050D02*
X11050Y7050D01*
X11050Y7750D02*
X12150Y7750D01*
X12150Y7050D01*
X11050Y7050D02*
X11050Y7750D01*
G54D22*
X11930Y9675D03*
G54D23*
X2724Y1527D03*
X6650Y900D03*
X12100Y1650D03*

M02*
