G04 Generated by Ultiboard 14.1 *
%FSLAX24Y24*%
%MOIN*%

%ADD10C,0.0001*%
%ADD11C,0.0080*%
%ADD12C,0.0067*%
%ADD13C,0.0070*%
%ADD14C,0.0001*%
%ADD15C,0.0060*%
%ADD16C,0.0001*%
%ADD17C,0.0061*%
%ADD18C,0.0079*%
%ADD19C,0.0098*%
%ADD20C,0.0120*%
%ADD21C,0.0100*%
%ADD22C,0.0197*%
%ADD23C,0.02236*%


G04 ColorRGB FFFF00 for the following layer *
%LNSilkscreen Top*%
%LPD*%
G54D10*
G54D11*
X5763Y2067D02*
X5763Y2461D01*
X5920Y2461D01*
X5998Y2382D01*
X5998Y2343D01*
X5920Y2264D01*
X5763Y2264D01*
X5802Y2264D02*
X5998Y2067D01*
X6155Y2421D02*
X6194Y2461D01*
X6272Y2461D01*
X6351Y2382D01*
X6351Y2303D01*
X6312Y2264D01*
X6351Y2224D01*
X6351Y2146D01*
X6272Y2067D01*
X6194Y2067D01*
X6155Y2106D01*
X6194Y2264D02*
X6312Y2264D01*
X6950Y2650D02*
X5850Y2650D01*
X5850Y3350D02*
X6950Y3350D01*
X5850Y2650D02*
X5850Y3350D01*
X6950Y3350D02*
X6950Y2650D01*
X10533Y8939D02*
X10139Y8939D01*
X10139Y9096D01*
X10218Y9174D01*
X10257Y9174D01*
X10336Y9096D01*
X10336Y8939D01*
X10336Y8978D02*
X10533Y9174D01*
X10533Y9449D02*
X10533Y9370D01*
X10454Y9292D01*
X10376Y9292D01*
X10336Y9331D01*
X10297Y9292D01*
X10218Y9292D01*
X10139Y9370D01*
X10139Y9449D01*
X10218Y9527D01*
X10297Y9527D01*
X10336Y9488D01*
X10376Y9527D01*
X10454Y9527D01*
X10533Y9449D01*
X10336Y9331D02*
X10336Y9488D01*
X10750Y10750D02*
X10750Y9650D01*
X10050Y9650D02*
X10050Y10750D01*
X10750Y9650D02*
X10050Y9650D01*
X10050Y10750D02*
X10750Y10750D01*
X12239Y10039D02*
X12633Y10276D01*
X12633Y10039D02*
X12239Y10276D01*
X12318Y10433D02*
X12239Y10512D01*
X12633Y10512D01*
X12633Y10394D02*
X12633Y10630D01*
X8239Y3367D02*
X8239Y3761D01*
X8396Y3761D01*
X8474Y3682D01*
X8474Y3643D01*
X8396Y3564D01*
X8239Y3564D01*
X8278Y3564D02*
X8474Y3367D01*
X8631Y3682D02*
X8709Y3761D01*
X8709Y3367D01*
X8592Y3367D02*
X8827Y3367D01*
X9350Y2450D02*
X8250Y2450D01*
X8250Y3150D02*
X9350Y3150D01*
X8250Y2450D02*
X8250Y3150D01*
X9350Y3150D02*
X9350Y2450D01*
X9134Y697D02*
X9212Y618D01*
X9291Y618D01*
X9369Y697D01*
X9369Y1012D01*
X9722Y776D02*
X9486Y776D01*
X9682Y1012D01*
X9682Y618D01*
X9643Y618D02*
X9722Y618D01*
X4134Y697D02*
X4212Y618D01*
X4291Y618D01*
X4369Y697D01*
X4369Y1012D01*
X4682Y1012D02*
X4565Y1012D01*
X4486Y933D01*
X4486Y776D01*
X4486Y697D01*
X4565Y618D01*
X4643Y618D01*
X4722Y697D01*
X4722Y776D01*
X4643Y854D01*
X4565Y854D01*
X4486Y776D01*
X9439Y4767D02*
X9439Y5161D01*
X9596Y5161D01*
X9674Y5082D01*
X9674Y5043D01*
X9596Y4964D01*
X9439Y4964D01*
X9478Y4964D02*
X9674Y4767D01*
X9792Y5082D02*
X9870Y5161D01*
X9949Y5161D01*
X10027Y5082D01*
X10027Y5043D01*
X9792Y4767D01*
X10027Y4767D01*
X10027Y4806D01*
X10150Y4550D02*
X10150Y3450D01*
X9450Y3450D02*
X9450Y4550D01*
X10150Y3450D02*
X9450Y3450D01*
X9450Y4550D02*
X10150Y4550D01*
X1539Y3667D02*
X1539Y4061D01*
X1696Y4061D01*
X1774Y3982D01*
X1774Y3943D01*
X1696Y3864D01*
X1539Y3864D01*
X1578Y3864D02*
X1774Y3667D01*
X2009Y3667D02*
X2009Y3864D01*
X2127Y3982D01*
X2127Y4061D01*
X1892Y4061D01*
X1892Y3982D01*
X2150Y5350D02*
X2150Y4250D01*
X1450Y4250D02*
X1450Y5350D01*
X2150Y4250D02*
X1450Y4250D01*
X1450Y5350D02*
X2150Y5350D01*
X1120Y4510D02*
X1120Y5260D01*
X120Y5260D01*
X1120Y260D02*
X120Y260D01*
X120Y5260D01*
X1120Y260D02*
X1120Y4260D01*
X1839Y6867D02*
X1839Y7261D01*
X1996Y7261D01*
X2074Y7182D01*
X2074Y7143D01*
X1996Y7064D01*
X1839Y7064D01*
X1878Y7064D02*
X2074Y6867D01*
X2388Y7261D02*
X2270Y7261D01*
X2192Y7182D01*
X2192Y7024D01*
X2192Y6946D01*
X2270Y6867D01*
X2349Y6867D01*
X2427Y6946D01*
X2427Y7024D01*
X2349Y7103D01*
X2270Y7103D01*
X2192Y7024D01*
X2350Y6750D02*
X2350Y5650D01*
X1650Y5650D02*
X1650Y6750D01*
X2350Y5650D02*
X1650Y5650D01*
X1650Y6750D02*
X2350Y6750D01*
X1100Y7833D02*
X1100Y6167D01*
X100Y6167D02*
X100Y7833D01*
X1100Y6167D02*
X100Y6167D01*
X600Y6833D02*
X600Y6784D01*
X100Y7833D02*
X1100Y7833D01*
X350Y6917D02*
X850Y6917D01*
X350Y6833D02*
X850Y6833D01*
X350Y6867D02*
X850Y6867D01*
X850Y7167D02*
X350Y7167D01*
X850Y7083D02*
X350Y7083D01*
X350Y7117D02*
X850Y7117D01*
X600Y7167D02*
X600Y7207D01*
X2239Y10067D02*
X2239Y10461D01*
X2396Y10461D01*
X2474Y10382D01*
X2474Y10343D01*
X2396Y10264D01*
X2239Y10264D01*
X2278Y10264D02*
X2474Y10067D01*
X2827Y10461D02*
X2592Y10461D01*
X2592Y10303D01*
X2749Y10303D01*
X2827Y10224D01*
X2827Y10146D01*
X2749Y10067D01*
X2592Y10067D01*
X1850Y9950D02*
X2950Y9950D01*
X2950Y9250D02*
X1850Y9250D01*
X2950Y9950D02*
X2950Y9250D01*
X1850Y9250D02*
X1850Y9950D01*
X120Y8350D02*
X1120Y8350D01*
X120Y11350D02*
X1120Y11350D01*
X120Y11350D02*
X120Y9350D01*
X120Y9100D02*
X120Y8350D01*
X120Y9267D02*
X453Y9267D01*
X203Y9183D02*
X120Y9267D01*
X1120Y11350D02*
X1120Y8350D01*
X4454Y12939D02*
X4533Y13018D01*
X4533Y13096D01*
X4454Y13174D01*
X4218Y12939D01*
X4139Y13018D01*
X4139Y13096D01*
X4218Y13174D01*
X4376Y13997D02*
X4376Y14233D01*
X4218Y14115D02*
X4533Y14115D01*
X4376Y15056D02*
X4376Y15291D01*
X8954Y13039D02*
X9033Y13118D01*
X9033Y13196D01*
X8954Y13274D01*
X8718Y13039D01*
X8639Y13118D01*
X8639Y13196D01*
X8718Y13274D01*
X8876Y14097D02*
X8876Y14333D01*
X8718Y14215D02*
X9033Y14215D01*
X8876Y15156D02*
X8876Y15391D01*
X12111Y3959D02*
X12189Y3880D01*
X12268Y3880D01*
X12346Y3959D01*
X12346Y4273D01*
X12699Y4273D02*
X12464Y4273D01*
X12464Y4116D01*
X12620Y4116D01*
X12699Y4037D01*
X12699Y3959D01*
X12620Y3880D01*
X12464Y3880D01*
X13130Y12593D02*
X9130Y12593D01*
X9130Y15613D01*
X13130Y15613D01*
X13130Y12593D01*
X13130Y15613D02*
X13130Y13613D01*
X12130Y14573D02*
X12130Y15573D01*
X13130Y14573D02*
X12140Y14573D01*
X8580Y15613D02*
X8580Y13613D01*
X7580Y14573D02*
X7580Y15573D01*
X8580Y14573D02*
X7590Y14573D01*
X8580Y12593D02*
X4580Y12593D01*
X4580Y15613D01*
X8580Y15613D01*
X8580Y12593D01*
X4030Y15613D02*
X4030Y13613D01*
X3030Y14573D02*
X3030Y15573D01*
X4030Y14573D02*
X3040Y14573D01*
X4030Y12593D02*
X30Y12593D01*
X30Y15613D01*
X4030Y15613D01*
X4030Y12593D01*
G54D12*
X7322Y11746D02*
X7244Y11668D01*
X7165Y11668D01*
X7087Y11746D01*
X7087Y11982D01*
X7165Y12061D01*
X7244Y12061D01*
X7322Y11982D01*
X7556Y11668D02*
X7556Y11864D01*
X7674Y11982D01*
X7674Y12061D01*
X7439Y12061D01*
X7439Y11982D01*
X11622Y7046D02*
X11544Y6968D01*
X11465Y6968D01*
X11387Y7046D01*
X11387Y7282D01*
X11465Y7361D01*
X11544Y7361D01*
X11622Y7282D01*
X11896Y6968D02*
X11817Y6968D01*
X11739Y7046D01*
X11739Y7125D01*
X11778Y7164D01*
X11739Y7204D01*
X11739Y7282D01*
X11817Y7361D01*
X11896Y7361D01*
X11974Y7282D01*
X11974Y7204D01*
X11935Y7164D01*
X11974Y7125D01*
X11974Y7046D01*
X11896Y6968D01*
X11778Y7164D02*
X11935Y7164D01*
X10122Y5846D02*
X10044Y5768D01*
X9965Y5768D01*
X9887Y5846D01*
X9887Y6082D01*
X9965Y6161D01*
X10044Y6161D01*
X10122Y6082D01*
X10435Y6161D02*
X10317Y6161D01*
X10239Y6082D01*
X10239Y5925D01*
X10239Y5846D01*
X10317Y5768D01*
X10396Y5768D01*
X10474Y5846D01*
X10474Y5925D01*
X10396Y6004D01*
X10317Y6004D01*
X10239Y5925D01*
X4974Y3946D02*
X4896Y3868D01*
X4817Y3868D01*
X4739Y3946D01*
X4739Y4182D01*
X4817Y4261D01*
X4896Y4261D01*
X4974Y4182D01*
X5326Y4025D02*
X5091Y4025D01*
X5287Y4261D01*
X5287Y3868D01*
X5248Y3868D02*
X5326Y3868D01*
X3954Y7774D02*
X4032Y7696D01*
X4032Y7617D01*
X3954Y7539D01*
X3718Y7539D01*
X3639Y7617D01*
X3639Y7696D01*
X3718Y7774D01*
X3679Y7930D02*
X3639Y7969D01*
X3639Y8048D01*
X3718Y8126D01*
X3796Y8126D01*
X3836Y8087D01*
X3875Y8126D01*
X3954Y8126D01*
X4032Y8048D01*
X4032Y7969D01*
X3993Y7930D01*
X3836Y7969D02*
X3836Y8087D01*
X6574Y4246D02*
X6496Y4168D01*
X6417Y4168D01*
X6339Y4246D01*
X6339Y4482D01*
X6417Y4561D01*
X6496Y4561D01*
X6574Y4482D01*
X6926Y4561D02*
X6691Y4561D01*
X6691Y4404D01*
X6848Y4404D01*
X6926Y4325D01*
X6926Y4246D01*
X6848Y4168D01*
X6691Y4168D01*
X2774Y3946D02*
X2696Y3868D01*
X2617Y3868D01*
X2539Y3946D01*
X2539Y4182D01*
X2617Y4261D01*
X2696Y4261D01*
X2774Y4182D01*
X2930Y4182D02*
X3008Y4261D01*
X3008Y3868D01*
X2891Y3868D02*
X3126Y3868D01*
X11574Y10346D02*
X11496Y10268D01*
X11417Y10268D01*
X11339Y10346D01*
X11339Y10582D01*
X11417Y10661D01*
X11496Y10661D01*
X11574Y10582D01*
X11691Y10346D02*
X11769Y10268D01*
X11848Y10268D01*
X11926Y10346D01*
X11926Y10504D01*
X11926Y10582D01*
X11848Y10661D01*
X11769Y10661D01*
X11691Y10582D01*
X11691Y10504D01*
X11769Y10425D01*
X11848Y10425D01*
X11926Y10504D01*
X1274Y6846D02*
X1196Y6768D01*
X1117Y6768D01*
X1039Y6846D01*
X1039Y7082D01*
X1117Y7161D01*
X1196Y7161D01*
X1274Y7082D01*
X1391Y7082D02*
X1469Y7161D01*
X1548Y7161D01*
X1626Y7082D01*
X1626Y7043D01*
X1391Y6768D01*
X1626Y6768D01*
X1626Y6807D01*
G54D13*
X5850Y12150D02*
X6950Y12150D01*
X6950Y11450D02*
X5850Y11450D01*
X5850Y12150D01*
X6950Y12150D02*
X6950Y11450D01*
X11050Y8150D02*
X12150Y8150D01*
X12150Y7450D02*
X11050Y7450D01*
X11050Y8150D01*
X12150Y8150D02*
X12150Y7450D01*
X9850Y6950D02*
X10950Y6950D01*
X10950Y6250D02*
X9850Y6250D01*
X9850Y6950D01*
X10950Y6950D02*
X10950Y6250D01*
X4850Y5150D02*
X5950Y5150D01*
X5950Y4450D02*
X4850Y4450D01*
X4850Y5150D01*
X5950Y5150D02*
X5950Y4450D01*
X2850Y7450D02*
X2850Y8550D01*
X3550Y8550D02*
X3550Y7450D01*
X2850Y7450D01*
X2850Y8550D02*
X3550Y8550D01*
X7550Y4650D02*
X6450Y4650D01*
X6450Y5350D02*
X7550Y5350D01*
X7550Y4650D01*
X6450Y4650D02*
X6450Y5350D01*
X3550Y4450D02*
X2450Y4450D01*
X2450Y5150D02*
X3550Y5150D01*
X3550Y4450D01*
X2450Y4450D02*
X2450Y5150D01*
X12150Y10850D02*
X11050Y10850D01*
X11050Y11550D02*
X12150Y11550D01*
X12150Y10850D01*
X11050Y10850D02*
X11050Y11550D01*
G54D14*
G36*
X600Y5300D02*
X600Y5300D01*
X200Y5800D01*
X1100Y5800D01*
X600Y5300D01*
D02*
G37*
X200Y5800D01*
X1100Y5800D01*
X600Y5300D01*
G54D15*
X10161Y-42D02*
X7799Y-42D01*
X7799Y2320D01*
X10161Y2320D01*
X10161Y-42D01*
X5331Y-42D02*
X2969Y-42D01*
X2969Y2320D01*
X5331Y2320D01*
X5331Y-42D01*
X13222Y5101D02*
X10860Y5101D01*
X10860Y2739D01*
X13222Y2739D01*
X13222Y5101D01*
G54D16*
G36*
X7800Y2300D02*
X7800Y2300D01*
X8240Y2300D01*
X7800Y1880D01*
X7800Y2300D01*
D02*
G37*
X8240Y2300D01*
X7800Y1880D01*
X7800Y2300D01*
G36*
X2970Y2300D02*
X2970Y2300D01*
X3410Y2300D01*
X2970Y1880D01*
X2970Y2300D01*
D02*
G37*
X3410Y2300D01*
X2970Y1880D01*
X2970Y2300D01*
G36*
X10880Y2740D02*
X10880Y2740D01*
X10880Y3180D01*
X11300Y2740D01*
X10880Y2740D01*
D02*
G37*
X10880Y3180D01*
X11300Y2740D01*
X10880Y2740D01*
G54D17*
X2039Y2361D02*
X2039Y1967D01*
X2274Y1967D01*
X2431Y2321D02*
X2470Y2361D01*
X2549Y2361D01*
X2627Y2282D01*
X2627Y2203D01*
X2588Y2164D01*
X2627Y2124D01*
X2627Y2046D01*
X2549Y1967D01*
X2470Y1967D01*
X2431Y2006D01*
X2470Y2164D02*
X2588Y2164D01*
X6339Y661D02*
X6339Y267D01*
X6574Y267D01*
X6731Y582D02*
X6810Y661D01*
X6810Y267D01*
X6692Y267D02*
X6927Y267D01*
X4062Y6389D02*
X4062Y6074D01*
X4140Y5995D01*
X4219Y5995D01*
X4297Y6074D01*
X4297Y6389D01*
X4415Y6310D02*
X4493Y6389D01*
X4572Y6389D01*
X4650Y6310D01*
X4650Y6271D01*
X4415Y5995D01*
X4650Y5995D01*
X4650Y6035D01*
X10834Y1612D02*
X10834Y1218D01*
X11069Y1218D01*
X11186Y1533D02*
X11265Y1612D01*
X11343Y1612D01*
X11422Y1533D01*
X11422Y1494D01*
X11186Y1218D01*
X11422Y1218D01*
X11422Y1257D01*
X6439Y8661D02*
X6439Y8346D01*
X6518Y8267D01*
X6596Y8267D01*
X6674Y8346D01*
X6674Y8661D01*
X6831Y8582D02*
X6910Y8661D01*
X6910Y8267D01*
X6792Y8267D02*
X7027Y8267D01*
G54D18*
X3971Y6072D02*
X3971Y6328D01*
X2829Y6328D02*
X2829Y6072D01*
X3971Y6072D01*
X3971Y6328D02*
X2829Y6328D01*
X4969Y10231D02*
X8631Y10231D01*
X8631Y6569D01*
X4969Y6569D01*
X4969Y10231D01*
G54D19*
X2662Y5649D02*
G75*
D01*
G02X2662Y5649I49J0*
G01*
X4290Y10132D02*
G75*
D01*
G02X4290Y10132I49J0*
G01*
G54D20*
X3922Y3157D02*
X3993Y3229D01*
X4136Y3229D01*
X4278Y3086D01*
X4278Y2943D01*
X4207Y2871D01*
X4278Y2800D01*
X4278Y2657D01*
X4136Y2514D01*
X3993Y2514D01*
X3922Y2586D01*
X3993Y2871D02*
X4207Y2871D01*
X10422Y1086D02*
X10564Y1229D01*
X10564Y514D01*
X10351Y514D02*
X10778Y514D01*
X11851Y5986D02*
X11993Y6129D01*
X12136Y6129D01*
X12278Y5986D01*
X12278Y5914D01*
X11851Y5414D01*
X12278Y5414D01*
X12278Y5486D01*
G54D21*
X1271Y10843D02*
X1271Y10616D01*
X1386Y10502D01*
X1443Y10502D01*
X1557Y10616D01*
X1671Y10502D01*
X1729Y10502D01*
X1843Y10616D01*
X1843Y10786D01*
X1843Y10843D01*
X1557Y10786D02*
X1557Y10616D01*
X1843Y10786D02*
X1271Y10786D01*
X1271Y10160D02*
X1614Y10160D01*
X1729Y10160D02*
X1786Y10160D01*
X1271Y9819D02*
X1614Y9819D01*
X1671Y9819D01*
X1614Y9819D02*
X1671Y9762D01*
X1671Y9648D01*
X1614Y9592D01*
X1271Y9592D01*
X1386Y8966D02*
X1271Y9080D01*
X1271Y9193D01*
X1386Y9307D01*
X1500Y9307D01*
X1614Y9193D01*
X1614Y9080D01*
X1500Y8966D01*
X1843Y8966D02*
X1271Y8966D01*
X214Y12345D02*
X328Y12460D01*
X328Y11888D01*
X157Y11888D02*
X498Y11888D01*
X669Y12345D02*
X783Y12460D01*
X896Y12460D01*
X1010Y12345D01*
X1010Y12288D01*
X669Y11888D01*
X1010Y11888D01*
X1010Y11945D01*
X3357Y12002D02*
X3471Y11888D01*
X3584Y11888D01*
X3698Y12002D01*
X3698Y12231D01*
X3698Y12345D01*
X3584Y12460D01*
X3471Y12460D01*
X3357Y12345D01*
X3357Y12231D01*
X3471Y12117D01*
X3584Y12117D01*
X3698Y12231D01*
X5084Y11888D02*
X4971Y11888D01*
X4857Y12002D01*
X4857Y12117D01*
X4914Y12174D01*
X4857Y12231D01*
X4857Y12345D01*
X4971Y12460D01*
X5084Y12460D01*
X5198Y12345D01*
X5198Y12231D01*
X5141Y12174D01*
X5198Y12117D01*
X5198Y12002D01*
X5084Y11888D01*
X4914Y12174D02*
X5141Y12174D01*
X8298Y12460D02*
X7957Y12460D01*
X7957Y12231D01*
X8184Y12231D01*
X8298Y12117D01*
X8298Y12002D01*
X8184Y11888D01*
X7957Y11888D01*
X9798Y12117D02*
X9457Y12117D01*
X9741Y12460D01*
X9741Y11888D01*
X9684Y11888D02*
X9798Y11888D01*
X12614Y12345D02*
X12728Y12460D01*
X12728Y11888D01*
X12557Y11888D02*
X12898Y11888D01*
G54D22*
X5235Y9867D02*
G75*
D01*
G02X5235Y9867I98J0*
G01*
G54D23*
X2724Y1527D03*
X6650Y900D03*
X12100Y1650D03*

M02*
