G04 Generated by Ultiboard 14.1 *
%FSLAX24Y24*%
%MOIN*%

%ADD10C,0.0001*%
%ADD11C,0.0100*%
%ADD12C,0.0236*%
%ADD13C,0.0416*%
%ADD14C,0.0633*%
%ADD15R,0.0208X0.0208*%
%ADD16C,0.0392*%


G04 ColorRGB 0000FF for the following layer *
%LNCopper Bottom*%
%LPD*%
G54D10*
G36*
X13135Y151D02*
X13135Y151D01*
X51Y151D01*
X51Y15597D01*
X13135Y15597D01*
X13135Y151D01*
D02*
G37*
%LPC*%
G36*
X9198Y13262D02*
G75*
D01*
G03X9198Y13262I432J-149*
G01*
D02*
G37*
G36*
X9198Y14262D02*
G75*
D01*
G03X9198Y14262I432J-149*
G01*
D02*
G37*
G36*
X9071Y13700D02*
G74*
D01*
G03X9021Y13821I171J0*
G01*
X9021Y13821D01*
X8608Y14234D01*
G74*
D01*
G03X8504Y14283I121J121*
G01*
G75*
D01*
G03X8475Y13884I-424J-170*
G01*
X8475Y13884D01*
X8729Y13629D01*
X8729Y11400D01*
G75*
D01*
G03X8779Y11279I171J0*
G01*
X8779Y11279D01*
X9162Y10897D01*
G75*
D01*
G03X9403Y11138I238J3*
G01*
X9403Y11138D01*
X9071Y11471D01*
X9071Y13700D01*
D02*
G37*
G36*
X7371Y3934D02*
G75*
D01*
G03X7029Y3934I-171J166*
G01*
X7029Y3934D01*
X7029Y3671D01*
X5066Y3671D01*
G75*
D01*
G03X4734Y3671I-166J-171*
G01*
X4734Y3671D01*
X3871Y3671D01*
X3438Y4103D01*
G74*
D01*
G03X3203Y4338I238J3*
G01*
X3203Y4338D01*
X2571Y4971D01*
X2571Y7829D01*
X2603Y7862D01*
G75*
D01*
G03X2362Y8103I-3J238*
G01*
X2362Y8103D01*
X2279Y8021D01*
G75*
D01*
G03X2229Y7900I121J-121*
G01*
X2229Y7900D01*
X2229Y4900D01*
G75*
D01*
G03X2279Y4779I171J0*
G01*
X2279Y4779D01*
X2962Y4097D01*
G74*
D01*
G03X3197Y3862I238J3*
G01*
X3197Y3862D01*
X3679Y3379D01*
G75*
D01*
G03X3800Y3329I121J121*
G01*
X3800Y3329D01*
X4734Y3329D01*
G75*
D01*
G03X5066Y3329I166J171*
G01*
X5066Y3329D01*
X8219Y3329D01*
X8219Y2083D01*
G75*
D01*
G03X8685Y1567I170J-314*
G01*
G74*
D01*
G03X8853Y1434I295J202*
G01*
X8853Y1434D01*
X8853Y1642D01*
X8724Y1642D01*
G75*
D01*
G03X8724Y1896I-335J127*
G01*
X8724Y1896D01*
X8853Y1896D01*
X8853Y2103D01*
G74*
D01*
G03X8685Y1971I127J334*
G01*
G74*
D01*
G03X8560Y2083I296J202*
G01*
X8560Y2083D01*
X8560Y3329D01*
X10000Y3329D01*
G74*
D01*
G03X10121Y3379I0J171*
G01*
X10121Y3379D01*
X10200Y3458D01*
X10450Y3209D01*
G75*
D01*
G03X10571Y3159I121J120*
G01*
X10571Y3159D01*
X11097Y3159D01*
G75*
D01*
G03X11613Y3625I314J170*
G01*
G74*
D01*
G03X11746Y3793I202J295*
G01*
X11746Y3793D01*
X11538Y3793D01*
X11538Y3664D01*
G75*
D01*
G03X11284Y3664I-127J-335*
G01*
X11284Y3664D01*
X11284Y3793D01*
X11077Y3793D01*
G74*
D01*
G03X11209Y3625I334J127*
G01*
G74*
D01*
G03X11097Y3500I202J296*
G01*
X11097Y3500D01*
X10641Y3500D01*
X10371Y3771D01*
X10371Y5534D01*
G75*
D01*
G03X10029Y5534I-171J166*
G01*
X10029Y5534D01*
X10029Y3771D01*
X9929Y3671D01*
X7371Y3671D01*
X7371Y3934D01*
D02*
G37*
G36*
X9107Y2103D02*
X9107Y2103D01*
X9107Y1896D01*
X9236Y1896D01*
G75*
D01*
G03X9236Y1642I335J-127*
G01*
X9236Y1642D01*
X9107Y1642D01*
X9107Y1434D01*
G74*
D01*
G03X9275Y1567I127J335*
G01*
G75*
D01*
G03X9275Y1971I296J202*
G01*
G74*
D01*
G03X9107Y2103I295J202*
G01*
D02*
G37*
G36*
X3529Y6800D02*
G75*
D01*
G03X3562Y6699I171J0*
G01*
G75*
D01*
G03X3871Y6927I238J1*
G01*
X3871Y6927D01*
X3871Y11129D01*
X4421Y11679D01*
G75*
D01*
G03X4471Y11800I-121J121*
G01*
X4471Y11800D01*
X4471Y13500D01*
G74*
D01*
G03X4421Y13621I171J0*
G01*
X4421Y13621D01*
X3983Y14058D01*
G75*
D01*
G03X3808Y13751I-453J55*
G01*
X3808Y13751D01*
X4129Y13429D01*
X4129Y11871D01*
X3579Y11321D01*
G75*
D01*
G03X3529Y11200I121J-121*
G01*
X3529Y11200D01*
X3529Y6800D01*
D02*
G37*
G36*
X13068Y15270D02*
G74*
D01*
G03X12787Y15551I334J53*
G01*
X12787Y15551D01*
X12787Y15270D01*
X13068Y15270D01*
D02*
G37*
G36*
X10577Y9884D02*
X10577Y9884D01*
X10716Y9884D01*
X10716Y10023D01*
G74*
D01*
G03X10577Y9884I84J223*
G01*
D02*
G37*
G36*
X10884Y10023D02*
X10884Y10023D01*
X10884Y9884D01*
X11023Y9884D01*
G74*
D01*
G03X10884Y10023I223J84*
G01*
D02*
G37*
G36*
X11023Y9716D02*
X11023Y9716D01*
X10884Y9716D01*
X10884Y9577D01*
G74*
D01*
G03X11023Y9716I84J223*
G01*
D02*
G37*
G36*
X10716Y9577D02*
X10716Y9577D01*
X10716Y9716D01*
X10577Y9716D01*
G74*
D01*
G03X10716Y9577I223J84*
G01*
D02*
G37*
G36*
X10741Y9800D02*
G75*
D01*
G03X10741Y9800I59J0*
G01*
D02*
G37*
G36*
X12584Y10723D02*
X12584Y10723D01*
X12584Y10584D01*
X12723Y10584D01*
G74*
D01*
G03X12584Y10723I223J84*
G01*
D02*
G37*
G36*
X12723Y10416D02*
X12723Y10416D01*
X12584Y10416D01*
X12584Y10277D01*
G74*
D01*
G03X12723Y10416I84J223*
G01*
D02*
G37*
G36*
X12277Y10584D02*
X12277Y10584D01*
X12416Y10584D01*
X12416Y10723D01*
G74*
D01*
G03X12277Y10584I84J223*
G01*
D02*
G37*
G36*
X12416Y10277D02*
X12416Y10277D01*
X12416Y10416D01*
X12277Y10416D01*
G74*
D01*
G03X12416Y10277I223J84*
G01*
D02*
G37*
G36*
X12441Y10500D02*
G75*
D01*
G03X12441Y10500I59J0*
G01*
D02*
G37*
G36*
X10173Y13113D02*
G75*
D01*
G03X10173Y13113I457J0*
G01*
D02*
G37*
G36*
X11173Y13113D02*
G75*
D01*
G03X11173Y13113I457J0*
G01*
D02*
G37*
G36*
X12173Y13113D02*
G75*
D01*
G03X12173Y13113I457J0*
G01*
D02*
G37*
G36*
X10173Y14113D02*
G75*
D01*
G03X10173Y14113I457J0*
G01*
D02*
G37*
G36*
X11173Y14113D02*
G75*
D01*
G03X11173Y14113I457J0*
G01*
D02*
G37*
G36*
X12173Y14113D02*
G75*
D01*
G03X12173Y14113I457J0*
G01*
D02*
G37*
G36*
X9468Y14686D02*
X9468Y14686D01*
X9468Y14951D01*
X9203Y14951D01*
G74*
D01*
G03X9468Y14686I427J162*
G01*
D02*
G37*
G36*
X9455Y15113D02*
G75*
D01*
G03X9455Y15113I175J0*
G01*
D02*
G37*
G36*
X10468Y14686D02*
X10468Y14686D01*
X10468Y14951D01*
X10203Y14951D01*
G74*
D01*
G03X10468Y14686I427J162*
G01*
D02*
G37*
G36*
X10057Y14951D02*
X10057Y14951D01*
X9792Y14951D01*
X9792Y14686D01*
G74*
D01*
G03X10057Y14951I162J427*
G01*
D02*
G37*
G36*
X11057Y14951D02*
X11057Y14951D01*
X10792Y14951D01*
X10792Y14686D01*
G74*
D01*
G03X11057Y14951I162J427*
G01*
D02*
G37*
G36*
X10455Y15113D02*
G75*
D01*
G03X10455Y15113I175J0*
G01*
D02*
G37*
G36*
X12057Y14951D02*
X12057Y14951D01*
X11792Y14951D01*
X11792Y14686D01*
G74*
D01*
G03X12057Y14951I162J427*
G01*
D02*
G37*
G36*
X11455Y15113D02*
G75*
D01*
G03X11455Y15113I175J0*
G01*
D02*
G37*
G36*
X11468Y14686D02*
X11468Y14686D01*
X11468Y14951D01*
X11203Y14951D01*
G74*
D01*
G03X11468Y14686I427J162*
G01*
D02*
G37*
G36*
X12434Y15113D02*
G75*
D01*
G03X12434Y15113I196J0*
G01*
D02*
G37*
G36*
X12192Y14957D02*
G74*
D01*
G03X12473Y14676I334J52*
G01*
X12473Y14676D01*
X12473Y14957D01*
X12192Y14957D01*
D02*
G37*
G36*
X12787Y14676D02*
G74*
D01*
G03X13068Y14957I53J333*
G01*
X13068Y14957D01*
X12787Y14957D01*
X12787Y14676D01*
D02*
G37*
G36*
X9203Y15275D02*
X9203Y15275D01*
X9468Y15275D01*
X9468Y15540D01*
G74*
D01*
G03X9203Y15275I162J427*
G01*
D02*
G37*
G36*
X10203Y15275D02*
X10203Y15275D01*
X10468Y15275D01*
X10468Y15540D01*
G74*
D01*
G03X10203Y15275I162J427*
G01*
D02*
G37*
G36*
X9792Y15540D02*
X9792Y15540D01*
X9792Y15275D01*
X10057Y15275D01*
G74*
D01*
G03X9792Y15540I427J162*
G01*
D02*
G37*
G36*
X10792Y15540D02*
X10792Y15540D01*
X10792Y15275D01*
X11057Y15275D01*
G74*
D01*
G03X10792Y15540I427J162*
G01*
D02*
G37*
G36*
X11792Y15540D02*
X11792Y15540D01*
X11792Y15275D01*
X12057Y15275D01*
G74*
D01*
G03X11792Y15540I427J162*
G01*
D02*
G37*
G36*
X11203Y15275D02*
X11203Y15275D01*
X11468Y15275D01*
X11468Y15540D01*
G74*
D01*
G03X11203Y15275I162J427*
G01*
D02*
G37*
G36*
X12473Y15551D02*
G74*
D01*
G03X12192Y15270I53J334*
G01*
X12192Y15270D01*
X12473Y15270D01*
X12473Y15551D01*
D02*
G37*
G36*
X10841Y6800D02*
G75*
D01*
G03X10841Y6800I59J0*
G01*
D02*
G37*
G36*
X11273Y3920D02*
G75*
D01*
G03X11273Y3920I138J0*
G01*
D02*
G37*
G36*
X11613Y4215D02*
G75*
D01*
G03X11209Y4215I-202J296*
G01*
G74*
D01*
G03X11077Y4047I202J295*
G01*
X11077Y4047D01*
X11284Y4047D01*
X11284Y4176D01*
G75*
D01*
G03X11538Y4176I127J335*
G01*
X11538Y4176D01*
X11538Y4047D01*
X11746Y4047D01*
G74*
D01*
G03X11613Y4215I335J127*
G01*
D02*
G37*
G36*
X10984Y7023D02*
X10984Y7023D01*
X10984Y6884D01*
X11123Y6884D01*
G74*
D01*
G03X10984Y7023I223J84*
G01*
D02*
G37*
G36*
X11123Y6716D02*
X11123Y6716D01*
X10984Y6716D01*
X10984Y6577D01*
G74*
D01*
G03X11123Y6716I84J223*
G01*
D02*
G37*
G36*
X10677Y6884D02*
X10677Y6884D01*
X10816Y6884D01*
X10816Y7023D01*
G74*
D01*
G03X10677Y6884I84J223*
G01*
D02*
G37*
G36*
X10816Y6577D02*
X10816Y6577D01*
X10816Y6716D01*
X10677Y6716D01*
G74*
D01*
G03X10816Y6577I223J84*
G01*
D02*
G37*
G36*
X6653Y15275D02*
X6653Y15275D01*
X6918Y15275D01*
X6918Y15540D01*
G74*
D01*
G03X6653Y15275I162J427*
G01*
D02*
G37*
G36*
X7507Y14951D02*
X7507Y14951D01*
X7242Y14951D01*
X7242Y14686D01*
G74*
D01*
G03X7507Y14951I162J427*
G01*
D02*
G37*
G36*
X8518Y15270D02*
G74*
D01*
G03X8237Y15551I334J53*
G01*
X8237Y15551D01*
X8237Y15270D01*
X8518Y15270D01*
D02*
G37*
G36*
X7923Y15551D02*
G74*
D01*
G03X7642Y15270I53J334*
G01*
X7642Y15270D01*
X7923Y15270D01*
X7923Y15551D01*
D02*
G37*
G36*
X8237Y14676D02*
G74*
D01*
G03X8518Y14957I53J333*
G01*
X8518Y14957D01*
X8237Y14957D01*
X8237Y14676D01*
D02*
G37*
G36*
X7884Y15113D02*
G75*
D01*
G03X7884Y15113I196J0*
G01*
D02*
G37*
G36*
X7642Y14957D02*
G74*
D01*
G03X7923Y14676I334J52*
G01*
X7923Y14676D01*
X7923Y14957D01*
X7642Y14957D01*
D02*
G37*
G36*
X6918Y14686D02*
X6918Y14686D01*
X6918Y14951D01*
X6653Y14951D01*
G74*
D01*
G03X6918Y14686I427J162*
G01*
D02*
G37*
G36*
X5653Y15275D02*
X5653Y15275D01*
X5918Y15275D01*
X5918Y15540D01*
G74*
D01*
G03X5653Y15275I162J427*
G01*
D02*
G37*
G36*
X6242Y15540D02*
X6242Y15540D01*
X6242Y15275D01*
X6507Y15275D01*
G74*
D01*
G03X6242Y15540I427J162*
G01*
D02*
G37*
G36*
X5918Y14686D02*
X5918Y14686D01*
X5918Y14951D01*
X5653Y14951D01*
G74*
D01*
G03X5918Y14686I427J162*
G01*
D02*
G37*
G36*
X6507Y14951D02*
X6507Y14951D01*
X6242Y14951D01*
X6242Y14686D01*
G74*
D01*
G03X6507Y14951I162J427*
G01*
D02*
G37*
G36*
X5905Y15113D02*
G75*
D01*
G03X5905Y15113I175J0*
G01*
D02*
G37*
G36*
X5242Y15540D02*
X5242Y15540D01*
X5242Y15275D01*
X5507Y15275D01*
G74*
D01*
G03X5242Y15540I427J162*
G01*
D02*
G37*
G36*
X4653Y15275D02*
X4653Y15275D01*
X4918Y15275D01*
X4918Y15540D01*
G74*
D01*
G03X4653Y15275I162J427*
G01*
D02*
G37*
G36*
X5507Y14951D02*
X5507Y14951D01*
X5242Y14951D01*
X5242Y14686D01*
G74*
D01*
G03X5507Y14951I162J427*
G01*
D02*
G37*
G36*
X4905Y15113D02*
G75*
D01*
G03X4905Y15113I175J0*
G01*
D02*
G37*
G36*
X4918Y14686D02*
X4918Y14686D01*
X4918Y14951D01*
X4653Y14951D01*
G74*
D01*
G03X4918Y14686I427J162*
G01*
D02*
G37*
G36*
X3373Y15551D02*
G74*
D01*
G03X3092Y15270I53J334*
G01*
X3092Y15270D01*
X3373Y15270D01*
X3373Y15551D01*
D02*
G37*
G36*
X3968Y15270D02*
G74*
D01*
G03X3687Y15551I334J53*
G01*
X3687Y15551D01*
X3687Y15270D01*
X3968Y15270D01*
D02*
G37*
G36*
X3687Y14676D02*
G74*
D01*
G03X3968Y14957I53J333*
G01*
X3968Y14957D01*
X3687Y14957D01*
X3687Y14676D01*
D02*
G37*
G36*
X3334Y15113D02*
G75*
D01*
G03X3334Y15113I196J0*
G01*
D02*
G37*
G36*
X3092Y14957D02*
G74*
D01*
G03X3373Y14676I334J52*
G01*
X3373Y14676D01*
X3373Y14957D01*
X3092Y14957D01*
D02*
G37*
G36*
X2692Y15540D02*
X2692Y15540D01*
X2692Y15275D01*
X2957Y15275D01*
G74*
D01*
G03X2692Y15540I427J162*
G01*
D02*
G37*
G36*
X2103Y15275D02*
X2103Y15275D01*
X2368Y15275D01*
X2368Y15540D01*
G74*
D01*
G03X2103Y15275I162J427*
G01*
D02*
G37*
G36*
X2957Y14951D02*
X2957Y14951D01*
X2692Y14951D01*
X2692Y14686D01*
G74*
D01*
G03X2957Y14951I162J427*
G01*
D02*
G37*
G36*
X2368Y14686D02*
X2368Y14686D01*
X2368Y14951D01*
X2103Y14951D01*
G74*
D01*
G03X2368Y14686I427J162*
G01*
D02*
G37*
G36*
X2355Y15113D02*
G75*
D01*
G03X2355Y15113I175J0*
G01*
D02*
G37*
G36*
X1692Y15540D02*
X1692Y15540D01*
X1692Y15275D01*
X1957Y15275D01*
G74*
D01*
G03X1692Y15540I427J162*
G01*
D02*
G37*
G36*
X1103Y15275D02*
X1103Y15275D01*
X1368Y15275D01*
X1368Y15540D01*
G74*
D01*
G03X1103Y15275I162J427*
G01*
D02*
G37*
G36*
X1957Y14951D02*
X1957Y14951D01*
X1692Y14951D01*
X1692Y14686D01*
G74*
D01*
G03X1957Y14951I162J427*
G01*
D02*
G37*
G36*
X1368Y14686D02*
X1368Y14686D01*
X1368Y14951D01*
X1103Y14951D01*
G74*
D01*
G03X1368Y14686I427J162*
G01*
D02*
G37*
G36*
X1355Y15113D02*
G75*
D01*
G03X1355Y15113I175J0*
G01*
D02*
G37*
G36*
X103Y15275D02*
X103Y15275D01*
X368Y15275D01*
X368Y15540D01*
G74*
D01*
G03X103Y15275I162J427*
G01*
D02*
G37*
G36*
X692Y15540D02*
X692Y15540D01*
X692Y15275D01*
X957Y15275D01*
G74*
D01*
G03X692Y15540I427J162*
G01*
D02*
G37*
G36*
X368Y14686D02*
X368Y14686D01*
X368Y14951D01*
X103Y14951D01*
G74*
D01*
G03X368Y14686I427J162*
G01*
D02*
G37*
G36*
X957Y14951D02*
X957Y14951D01*
X692Y14951D01*
X692Y14686D01*
G74*
D01*
G03X957Y14951I162J427*
G01*
D02*
G37*
G36*
X355Y15113D02*
G75*
D01*
G03X355Y15113I175J0*
G01*
D02*
G37*
G36*
X6623Y14113D02*
G75*
D01*
G03X6623Y14113I457J0*
G01*
D02*
G37*
G36*
X5623Y14113D02*
G75*
D01*
G03X5623Y14113I457J0*
G01*
D02*
G37*
G36*
X4623Y14113D02*
G75*
D01*
G03X4623Y14113I457J0*
G01*
D02*
G37*
G36*
X2073Y14113D02*
G75*
D01*
G03X2073Y14113I457J0*
G01*
D02*
G37*
G36*
X1073Y14113D02*
G75*
D01*
G03X1073Y14113I457J0*
G01*
D02*
G37*
G36*
X73Y14113D02*
G75*
D01*
G03X73Y14113I457J0*
G01*
D02*
G37*
G36*
X6623Y13113D02*
G75*
D01*
G03X6623Y13113I457J0*
G01*
D02*
G37*
G36*
X5623Y13113D02*
G75*
D01*
G03X5623Y13113I457J0*
G01*
D02*
G37*
G36*
X4623Y13113D02*
G75*
D01*
G03X4623Y13113I457J0*
G01*
D02*
G37*
G36*
X2073Y13113D02*
G75*
D01*
G03X2073Y13113I457J0*
G01*
D02*
G37*
G36*
X1073Y13113D02*
G75*
D01*
G03X1073Y13113I457J0*
G01*
D02*
G37*
G36*
X73Y13113D02*
G75*
D01*
G03X73Y13113I457J0*
G01*
D02*
G37*
G36*
X6723Y12316D02*
X6723Y12316D01*
X6584Y12316D01*
X6584Y12177D01*
G74*
D01*
G03X6723Y12316I84J223*
G01*
D02*
G37*
G36*
X6441Y12400D02*
G75*
D01*
G03X6441Y12400I59J0*
G01*
D02*
G37*
G36*
X6584Y12623D02*
X6584Y12623D01*
X6584Y12484D01*
X6723Y12484D01*
G74*
D01*
G03X6584Y12623I223J84*
G01*
D02*
G37*
G36*
X6277Y12484D02*
X6277Y12484D01*
X6416Y12484D01*
X6416Y12623D01*
G74*
D01*
G03X6277Y12484I84J223*
G01*
D02*
G37*
G36*
X6416Y12177D02*
X6416Y12177D01*
X6416Y12316D01*
X6277Y12316D01*
G74*
D01*
G03X6416Y12177I223J84*
G01*
D02*
G37*
G36*
X7623Y13113D02*
G75*
D01*
G03X7623Y13113I457J0*
G01*
D02*
G37*
G36*
X163Y10850D02*
G75*
D01*
G03X163Y10850I457J0*
G01*
D02*
G37*
G36*
X3073Y13113D02*
G75*
D01*
G03X3073Y13113I457J0*
G01*
D02*
G37*
G36*
X458Y9423D02*
X458Y9423D01*
X458Y9688D01*
X193Y9688D01*
G74*
D01*
G03X458Y9423I427J162*
G01*
D02*
G37*
G36*
X445Y9850D02*
G75*
D01*
G03X445Y9850I175J0*
G01*
D02*
G37*
G36*
X782Y10277D02*
X782Y10277D01*
X782Y10012D01*
X1047Y10012D01*
G74*
D01*
G03X782Y10277I427J162*
G01*
D02*
G37*
G36*
X193Y10012D02*
X193Y10012D01*
X458Y10012D01*
X458Y10277D01*
G74*
D01*
G03X193Y10012I162J427*
G01*
D02*
G37*
G36*
X1047Y9688D02*
X1047Y9688D01*
X782Y9688D01*
X782Y9423D01*
G74*
D01*
G03X1047Y9688I162J427*
G01*
D02*
G37*
G36*
X6905Y15113D02*
G75*
D01*
G03X6905Y15113I175J0*
G01*
D02*
G37*
G36*
X7242Y15540D02*
X7242Y15540D01*
X7242Y15275D01*
X7507Y15275D01*
G74*
D01*
G03X7242Y15540I427J162*
G01*
D02*
G37*
G36*
X2941Y8800D02*
G75*
D01*
G03X2941Y8800I59J0*
G01*
D02*
G37*
G36*
X3084Y9023D02*
X3084Y9023D01*
X3084Y8884D01*
X3223Y8884D01*
G74*
D01*
G03X3084Y9023I223J84*
G01*
D02*
G37*
G36*
X3223Y8716D02*
X3223Y8716D01*
X3084Y8716D01*
X3084Y8577D01*
G74*
D01*
G03X3223Y8716I84J223*
G01*
D02*
G37*
G36*
X2916Y8577D02*
X2916Y8577D01*
X2916Y8716D01*
X2777Y8716D01*
G74*
D01*
G03X2916Y8577I223J84*
G01*
D02*
G37*
G36*
X516Y8408D02*
X516Y8408D01*
X724Y8408D01*
G75*
D01*
G03X1062Y8746I0J338*
G01*
X1062Y8746D01*
X1062Y8954D01*
G74*
D01*
G03X724Y9292I338J0*
G01*
X724Y9292D01*
X516Y9292D01*
G75*
D01*
G03X178Y8954I0J-338*
G01*
X178Y8954D01*
X178Y8746D01*
G75*
D01*
G03X516Y8408I338J0*
G01*
D02*
G37*
G36*
X984Y7823D02*
X984Y7823D01*
X984Y7684D01*
X1123Y7684D01*
G74*
D01*
G03X984Y7823I223J84*
G01*
D02*
G37*
G36*
X1123Y7516D02*
X1123Y7516D01*
X984Y7516D01*
X984Y7377D01*
G74*
D01*
G03X1123Y7516I84J223*
G01*
D02*
G37*
G36*
X841Y7600D02*
G75*
D01*
G03X841Y7600I59J0*
G01*
D02*
G37*
G36*
X677Y7684D02*
X677Y7684D01*
X816Y7684D01*
X816Y7823D01*
G74*
D01*
G03X677Y7684I84J223*
G01*
D02*
G37*
G36*
X816Y7377D02*
X816Y7377D01*
X816Y7516D01*
X677Y7516D01*
G74*
D01*
G03X816Y7377I223J84*
G01*
D02*
G37*
G36*
X6816Y6777D02*
X6816Y6777D01*
X6816Y6916D01*
X6677Y6916D01*
G74*
D01*
G03X6816Y6777I223J84*
G01*
D02*
G37*
G36*
X6841Y7000D02*
G75*
D01*
G03X6841Y7000I59J0*
G01*
D02*
G37*
G36*
X6677Y7084D02*
X6677Y7084D01*
X6816Y7084D01*
X6816Y7223D01*
G74*
D01*
G03X6677Y7084I84J223*
G01*
D02*
G37*
G36*
X6984Y7223D02*
X6984Y7223D01*
X6984Y7084D01*
X7123Y7084D01*
G74*
D01*
G03X6984Y7223I223J84*
G01*
D02*
G37*
G36*
X7123Y6916D02*
X7123Y6916D01*
X6984Y6916D01*
X6984Y6777D01*
G74*
D01*
G03X7123Y6916I84J223*
G01*
D02*
G37*
G36*
X5784Y4423D02*
X5784Y4423D01*
X5784Y4284D01*
X5923Y4284D01*
G74*
D01*
G03X5784Y4423I223J84*
G01*
D02*
G37*
G36*
X5923Y4116D02*
X5923Y4116D01*
X5784Y4116D01*
X5784Y3977D01*
G74*
D01*
G03X5923Y4116I84J223*
G01*
D02*
G37*
G36*
X5641Y4200D02*
G75*
D01*
G03X5641Y4200I59J0*
G01*
D02*
G37*
G36*
X5477Y4284D02*
X5477Y4284D01*
X5616Y4284D01*
X5616Y4423D01*
G74*
D01*
G03X5477Y4284I84J223*
G01*
D02*
G37*
G36*
X5616Y3977D02*
X5616Y3977D01*
X5616Y4116D01*
X5477Y4116D01*
G74*
D01*
G03X5616Y3977I223J84*
G01*
D02*
G37*
G36*
X1977Y4284D02*
X1977Y4284D01*
X2116Y4284D01*
X2116Y4423D01*
G74*
D01*
G03X1977Y4284I84J223*
G01*
D02*
G37*
G36*
X2116Y3977D02*
X2116Y3977D01*
X2116Y4116D01*
X1977Y4116D01*
G74*
D01*
G03X2116Y3977I223J84*
G01*
D02*
G37*
G36*
X163Y3760D02*
G75*
D01*
G03X163Y3760I457J0*
G01*
D02*
G37*
G36*
X8842Y1769D02*
G75*
D01*
G03X8842Y1769I138J0*
G01*
D02*
G37*
G36*
X1000Y5058D02*
X1000Y5058D01*
X1921Y5979D01*
G75*
D01*
G03X1971Y6100I-121J121*
G01*
X1971Y6100D01*
X1971Y8129D01*
X2503Y8662D01*
G75*
D01*
G03X2262Y8903I-3J238*
G01*
X2262Y8903D01*
X1679Y8321D01*
G75*
D01*
G03X1629Y8200I121J-121*
G01*
X1629Y8200D01*
X1629Y6171D01*
X660Y5202D01*
X516Y5202D01*
G75*
D01*
G03X178Y4864I0J-338*
G01*
X178Y4864D01*
X178Y4656D01*
G75*
D01*
G03X516Y4318I338J0*
G01*
X516Y4318D01*
X724Y4318D01*
G75*
D01*
G03X1062Y4656I0J338*
G01*
X1062Y4656D01*
X1062Y4864D01*
G74*
D01*
G03X1000Y5058I338J0*
G01*
D02*
G37*
G36*
X2423Y4116D02*
X2423Y4116D01*
X2284Y4116D01*
X2284Y3977D01*
G74*
D01*
G03X2423Y4116I84J223*
G01*
D02*
G37*
G36*
X2284Y4423D02*
X2284Y4423D01*
X2284Y4284D01*
X2423Y4284D01*
G74*
D01*
G03X2284Y4423I223J84*
G01*
D02*
G37*
G36*
X2141Y4200D02*
G75*
D01*
G03X2141Y4200I59J0*
G01*
D02*
G37*
G36*
X888Y1130D02*
G75*
D01*
G03X1071Y830I-268J-370*
G01*
X1071Y830D01*
X3003Y2762D01*
G74*
D01*
G03X3238Y2999I3J238*
G01*
G75*
D01*
G03X2999Y3238I-138J101*
G01*
G74*
D01*
G03X2762Y3003I1J238*
G01*
X2762Y3003D01*
X888Y1130D01*
D02*
G37*
G36*
X163Y1760D02*
G75*
D01*
G03X163Y1760I457J0*
G01*
D02*
G37*
G36*
X3894Y1642D02*
G75*
D01*
G03X3894Y1896I-335J127*
G01*
X3894Y1896D01*
X4023Y1896D01*
X4023Y2103D01*
G74*
D01*
G03X3855Y1971I127J334*
G01*
G75*
D01*
G03X3855Y1567I-296J-202*
G01*
G74*
D01*
G03X4023Y1434I295J202*
G01*
X4023Y1434D01*
X4023Y1642D01*
X3894Y1642D01*
D02*
G37*
G36*
X4012Y1769D02*
G75*
D01*
G03X4012Y1769I138J0*
G01*
D02*
G37*
G36*
X1047Y2598D02*
X1047Y2598D01*
X782Y2598D01*
X782Y2333D01*
G74*
D01*
G03X1047Y2598I162J427*
G01*
D02*
G37*
G36*
X445Y2760D02*
G75*
D01*
G03X445Y2760I175J0*
G01*
D02*
G37*
G36*
X782Y3187D02*
X782Y3187D01*
X782Y2922D01*
X1047Y2922D01*
G74*
D01*
G03X782Y3187I427J162*
G01*
D02*
G37*
G36*
X458Y2333D02*
X458Y2333D01*
X458Y2598D01*
X193Y2598D01*
G74*
D01*
G03X458Y2333I427J162*
G01*
D02*
G37*
G36*
X193Y2922D02*
X193Y2922D01*
X458Y2922D01*
X458Y3187D01*
G74*
D01*
G03X193Y2922I162J427*
G01*
D02*
G37*
G36*
X4406Y1642D02*
X4406Y1642D01*
X4277Y1642D01*
X4277Y1434D01*
G74*
D01*
G03X4445Y1567I127J335*
G01*
G75*
D01*
G03X4445Y1971I296J202*
G01*
G74*
D01*
G03X4277Y2103I295J202*
G01*
X4277Y2103D01*
X4277Y1896D01*
X4406Y1896D01*
G75*
D01*
G03X4406Y1642I335J-127*
G01*
D02*
G37*
G36*
X2777Y8884D02*
X2777Y8884D01*
X2916Y8884D01*
X2916Y9023D01*
G74*
D01*
G03X2777Y8884I84J223*
G01*
D02*
G37*
%LPD*%
G54D11*
X9198Y13262D02*
G75*
D01*
G03X9198Y13262I432J-149*
G01*
X9198Y14262D02*
G75*
D01*
G03X9198Y14262I432J-149*
G01*
X9071Y13700D02*
G74*
D01*
G03X9021Y13821I171J0*
G01*
X8608Y14234D01*
G74*
D01*
G03X8504Y14283I121J121*
G01*
G75*
D01*
G03X8475Y13884I-424J-170*
G01*
X8729Y13629D01*
X8729Y11400D01*
G75*
D01*
G03X8779Y11279I171J0*
G01*
X9162Y10897D01*
G75*
D01*
G03X9403Y11138I238J3*
G01*
X9071Y11471D01*
X9071Y13700D01*
X7371Y3934D02*
G75*
D01*
G03X7029Y3934I-171J166*
G01*
X7029Y3671D01*
X5066Y3671D01*
G75*
D01*
G03X4734Y3671I-166J-171*
G01*
X3871Y3671D01*
X3438Y4103D01*
G74*
D01*
G03X3203Y4338I238J3*
G01*
X2571Y4971D01*
X2571Y7829D01*
X2603Y7862D01*
G75*
D01*
G03X2362Y8103I-3J238*
G01*
X2279Y8021D01*
G75*
D01*
G03X2229Y7900I121J-121*
G01*
X2229Y4900D01*
G75*
D01*
G03X2279Y4779I171J0*
G01*
X2962Y4097D01*
G74*
D01*
G03X3197Y3862I238J3*
G01*
X3679Y3379D01*
G75*
D01*
G03X3800Y3329I121J121*
G01*
X4734Y3329D01*
G75*
D01*
G03X5066Y3329I166J171*
G01*
X8219Y3329D01*
X8219Y2083D01*
G75*
D01*
G03X8685Y1567I170J-314*
G01*
G74*
D01*
G03X8853Y1434I295J202*
G01*
X8853Y1642D01*
X8724Y1642D01*
G75*
D01*
G03X8724Y1896I-335J127*
G01*
X8853Y1896D01*
X8853Y2103D01*
G74*
D01*
G03X8685Y1971I127J334*
G01*
G74*
D01*
G03X8560Y2083I296J202*
G01*
X8560Y3329D01*
X10000Y3329D01*
G74*
D01*
G03X10121Y3379I0J171*
G01*
X10200Y3458D01*
X10450Y3209D01*
G75*
D01*
G03X10571Y3159I121J120*
G01*
X11097Y3159D01*
G75*
D01*
G03X11613Y3625I314J170*
G01*
G74*
D01*
G03X11746Y3793I202J295*
G01*
X11538Y3793D01*
X11538Y3664D01*
G75*
D01*
G03X11284Y3664I-127J-335*
G01*
X11284Y3793D01*
X11077Y3793D01*
G74*
D01*
G03X11209Y3625I334J127*
G01*
G74*
D01*
G03X11097Y3500I202J296*
G01*
X10641Y3500D01*
X10371Y3771D01*
X10371Y5534D01*
G75*
D01*
G03X10029Y5534I-171J166*
G01*
X10029Y3771D01*
X9929Y3671D01*
X7371Y3671D01*
X7371Y3934D01*
X9107Y2103D02*
X9107Y1896D01*
X9236Y1896D01*
G75*
D01*
G03X9236Y1642I335J-127*
G01*
X9107Y1642D01*
X9107Y1434D01*
G74*
D01*
G03X9275Y1567I127J335*
G01*
G75*
D01*
G03X9275Y1971I296J202*
G01*
G74*
D01*
G03X9107Y2103I295J202*
G01*
X3529Y6800D02*
G75*
D01*
G03X3562Y6699I171J0*
G01*
G75*
D01*
G03X3871Y6927I238J1*
G01*
X3871Y11129D01*
X4421Y11679D01*
G75*
D01*
G03X4471Y11800I-121J121*
G01*
X4471Y13500D01*
G74*
D01*
G03X4421Y13621I171J0*
G01*
X3983Y14058D01*
G75*
D01*
G03X3808Y13751I-453J55*
G01*
X4129Y13429D01*
X4129Y11871D01*
X3579Y11321D01*
G75*
D01*
G03X3529Y11200I121J-121*
G01*
X3529Y6800D01*
X13068Y15270D02*
G74*
D01*
G03X12787Y15551I334J53*
G01*
X12787Y15270D01*
X13068Y15270D01*
X10577Y9884D02*
X10716Y9884D01*
X10716Y10023D01*
G74*
D01*
G03X10577Y9884I84J223*
G01*
X10884Y10023D02*
X10884Y9884D01*
X11023Y9884D01*
G74*
D01*
G03X10884Y10023I223J84*
G01*
X11023Y9716D02*
X10884Y9716D01*
X10884Y9577D01*
G74*
D01*
G03X11023Y9716I84J223*
G01*
X10716Y9577D02*
X10716Y9716D01*
X10577Y9716D01*
G74*
D01*
G03X10716Y9577I223J84*
G01*
X10741Y9800D02*
G75*
D01*
G03X10741Y9800I59J0*
G01*
X12584Y10723D02*
X12584Y10584D01*
X12723Y10584D01*
G74*
D01*
G03X12584Y10723I223J84*
G01*
X12723Y10416D02*
X12584Y10416D01*
X12584Y10277D01*
G74*
D01*
G03X12723Y10416I84J223*
G01*
X12277Y10584D02*
X12416Y10584D01*
X12416Y10723D01*
G74*
D01*
G03X12277Y10584I84J223*
G01*
X12416Y10277D02*
X12416Y10416D01*
X12277Y10416D01*
G74*
D01*
G03X12416Y10277I223J84*
G01*
X12441Y10500D02*
G75*
D01*
G03X12441Y10500I59J0*
G01*
X10173Y13113D02*
G75*
D01*
G03X10173Y13113I457J0*
G01*
X11173Y13113D02*
G75*
D01*
G03X11173Y13113I457J0*
G01*
X12173Y13113D02*
G75*
D01*
G03X12173Y13113I457J0*
G01*
X10173Y14113D02*
G75*
D01*
G03X10173Y14113I457J0*
G01*
X11173Y14113D02*
G75*
D01*
G03X11173Y14113I457J0*
G01*
X12173Y14113D02*
G75*
D01*
G03X12173Y14113I457J0*
G01*
X9468Y14686D02*
X9468Y14951D01*
X9203Y14951D01*
G74*
D01*
G03X9468Y14686I427J162*
G01*
X9455Y15113D02*
G75*
D01*
G03X9455Y15113I175J0*
G01*
X10468Y14686D02*
X10468Y14951D01*
X10203Y14951D01*
G74*
D01*
G03X10468Y14686I427J162*
G01*
X10057Y14951D02*
X9792Y14951D01*
X9792Y14686D01*
G74*
D01*
G03X10057Y14951I162J427*
G01*
X11057Y14951D02*
X10792Y14951D01*
X10792Y14686D01*
G74*
D01*
G03X11057Y14951I162J427*
G01*
X10455Y15113D02*
G75*
D01*
G03X10455Y15113I175J0*
G01*
X12057Y14951D02*
X11792Y14951D01*
X11792Y14686D01*
G74*
D01*
G03X12057Y14951I162J427*
G01*
X11455Y15113D02*
G75*
D01*
G03X11455Y15113I175J0*
G01*
X11468Y14686D02*
X11468Y14951D01*
X11203Y14951D01*
G74*
D01*
G03X11468Y14686I427J162*
G01*
X12434Y15113D02*
G75*
D01*
G03X12434Y15113I196J0*
G01*
X12192Y14957D02*
G74*
D01*
G03X12473Y14676I334J52*
G01*
X12473Y14957D01*
X12192Y14957D01*
X12787Y14676D02*
G74*
D01*
G03X13068Y14957I53J333*
G01*
X12787Y14957D01*
X12787Y14676D01*
X9203Y15275D02*
X9468Y15275D01*
X9468Y15540D01*
G74*
D01*
G03X9203Y15275I162J427*
G01*
X10203Y15275D02*
X10468Y15275D01*
X10468Y15540D01*
G74*
D01*
G03X10203Y15275I162J427*
G01*
X9792Y15540D02*
X9792Y15275D01*
X10057Y15275D01*
G74*
D01*
G03X9792Y15540I427J162*
G01*
X10792Y15540D02*
X10792Y15275D01*
X11057Y15275D01*
G74*
D01*
G03X10792Y15540I427J162*
G01*
X11792Y15540D02*
X11792Y15275D01*
X12057Y15275D01*
G74*
D01*
G03X11792Y15540I427J162*
G01*
X11203Y15275D02*
X11468Y15275D01*
X11468Y15540D01*
G74*
D01*
G03X11203Y15275I162J427*
G01*
X12473Y15551D02*
G74*
D01*
G03X12192Y15270I53J334*
G01*
X12473Y15270D01*
X12473Y15551D01*
X10841Y6800D02*
G75*
D01*
G03X10841Y6800I59J0*
G01*
X11273Y3920D02*
G75*
D01*
G03X11273Y3920I138J0*
G01*
X11613Y4215D02*
G75*
D01*
G03X11209Y4215I-202J296*
G01*
G74*
D01*
G03X11077Y4047I202J295*
G01*
X11284Y4047D01*
X11284Y4176D01*
G75*
D01*
G03X11538Y4176I127J335*
G01*
X11538Y4047D01*
X11746Y4047D01*
G74*
D01*
G03X11613Y4215I335J127*
G01*
X10984Y7023D02*
X10984Y6884D01*
X11123Y6884D01*
G74*
D01*
G03X10984Y7023I223J84*
G01*
X11123Y6716D02*
X10984Y6716D01*
X10984Y6577D01*
G74*
D01*
G03X11123Y6716I84J223*
G01*
X10677Y6884D02*
X10816Y6884D01*
X10816Y7023D01*
G74*
D01*
G03X10677Y6884I84J223*
G01*
X10816Y6577D02*
X10816Y6716D01*
X10677Y6716D01*
G74*
D01*
G03X10816Y6577I223J84*
G01*
X6653Y15275D02*
X6918Y15275D01*
X6918Y15540D01*
G74*
D01*
G03X6653Y15275I162J427*
G01*
X7507Y14951D02*
X7242Y14951D01*
X7242Y14686D01*
G74*
D01*
G03X7507Y14951I162J427*
G01*
X8518Y15270D02*
G74*
D01*
G03X8237Y15551I334J53*
G01*
X8237Y15270D01*
X8518Y15270D01*
X7923Y15551D02*
G74*
D01*
G03X7642Y15270I53J334*
G01*
X7923Y15270D01*
X7923Y15551D01*
X8237Y14676D02*
G74*
D01*
G03X8518Y14957I53J333*
G01*
X8237Y14957D01*
X8237Y14676D01*
X7884Y15113D02*
G75*
D01*
G03X7884Y15113I196J0*
G01*
X7642Y14957D02*
G74*
D01*
G03X7923Y14676I334J52*
G01*
X7923Y14957D01*
X7642Y14957D01*
X6918Y14686D02*
X6918Y14951D01*
X6653Y14951D01*
G74*
D01*
G03X6918Y14686I427J162*
G01*
X5653Y15275D02*
X5918Y15275D01*
X5918Y15540D01*
G74*
D01*
G03X5653Y15275I162J427*
G01*
X6242Y15540D02*
X6242Y15275D01*
X6507Y15275D01*
G74*
D01*
G03X6242Y15540I427J162*
G01*
X5918Y14686D02*
X5918Y14951D01*
X5653Y14951D01*
G74*
D01*
G03X5918Y14686I427J162*
G01*
X6507Y14951D02*
X6242Y14951D01*
X6242Y14686D01*
G74*
D01*
G03X6507Y14951I162J427*
G01*
X5905Y15113D02*
G75*
D01*
G03X5905Y15113I175J0*
G01*
X5242Y15540D02*
X5242Y15275D01*
X5507Y15275D01*
G74*
D01*
G03X5242Y15540I427J162*
G01*
X4653Y15275D02*
X4918Y15275D01*
X4918Y15540D01*
G74*
D01*
G03X4653Y15275I162J427*
G01*
X5507Y14951D02*
X5242Y14951D01*
X5242Y14686D01*
G74*
D01*
G03X5507Y14951I162J427*
G01*
X4905Y15113D02*
G75*
D01*
G03X4905Y15113I175J0*
G01*
X4918Y14686D02*
X4918Y14951D01*
X4653Y14951D01*
G74*
D01*
G03X4918Y14686I427J162*
G01*
X3373Y15551D02*
G74*
D01*
G03X3092Y15270I53J334*
G01*
X3373Y15270D01*
X3373Y15551D01*
X3968Y15270D02*
G74*
D01*
G03X3687Y15551I334J53*
G01*
X3687Y15270D01*
X3968Y15270D01*
X3687Y14676D02*
G74*
D01*
G03X3968Y14957I53J333*
G01*
X3687Y14957D01*
X3687Y14676D01*
X3334Y15113D02*
G75*
D01*
G03X3334Y15113I196J0*
G01*
X3092Y14957D02*
G74*
D01*
G03X3373Y14676I334J52*
G01*
X3373Y14957D01*
X3092Y14957D01*
X2692Y15540D02*
X2692Y15275D01*
X2957Y15275D01*
G74*
D01*
G03X2692Y15540I427J162*
G01*
X2103Y15275D02*
X2368Y15275D01*
X2368Y15540D01*
G74*
D01*
G03X2103Y15275I162J427*
G01*
X2957Y14951D02*
X2692Y14951D01*
X2692Y14686D01*
G74*
D01*
G03X2957Y14951I162J427*
G01*
X2368Y14686D02*
X2368Y14951D01*
X2103Y14951D01*
G74*
D01*
G03X2368Y14686I427J162*
G01*
X2355Y15113D02*
G75*
D01*
G03X2355Y15113I175J0*
G01*
X1692Y15540D02*
X1692Y15275D01*
X1957Y15275D01*
G74*
D01*
G03X1692Y15540I427J162*
G01*
X1103Y15275D02*
X1368Y15275D01*
X1368Y15540D01*
G74*
D01*
G03X1103Y15275I162J427*
G01*
X1957Y14951D02*
X1692Y14951D01*
X1692Y14686D01*
G74*
D01*
G03X1957Y14951I162J427*
G01*
X1368Y14686D02*
X1368Y14951D01*
X1103Y14951D01*
G74*
D01*
G03X1368Y14686I427J162*
G01*
X1355Y15113D02*
G75*
D01*
G03X1355Y15113I175J0*
G01*
X103Y15275D02*
X368Y15275D01*
X368Y15540D01*
G74*
D01*
G03X103Y15275I162J427*
G01*
X692Y15540D02*
X692Y15275D01*
X957Y15275D01*
G74*
D01*
G03X692Y15540I427J162*
G01*
X368Y14686D02*
X368Y14951D01*
X103Y14951D01*
G74*
D01*
G03X368Y14686I427J162*
G01*
X957Y14951D02*
X692Y14951D01*
X692Y14686D01*
G74*
D01*
G03X957Y14951I162J427*
G01*
X355Y15113D02*
G75*
D01*
G03X355Y15113I175J0*
G01*
X6623Y14113D02*
G75*
D01*
G03X6623Y14113I457J0*
G01*
X5623Y14113D02*
G75*
D01*
G03X5623Y14113I457J0*
G01*
X4623Y14113D02*
G75*
D01*
G03X4623Y14113I457J0*
G01*
X2073Y14113D02*
G75*
D01*
G03X2073Y14113I457J0*
G01*
X1073Y14113D02*
G75*
D01*
G03X1073Y14113I457J0*
G01*
X73Y14113D02*
G75*
D01*
G03X73Y14113I457J0*
G01*
X6623Y13113D02*
G75*
D01*
G03X6623Y13113I457J0*
G01*
X5623Y13113D02*
G75*
D01*
G03X5623Y13113I457J0*
G01*
X4623Y13113D02*
G75*
D01*
G03X4623Y13113I457J0*
G01*
X2073Y13113D02*
G75*
D01*
G03X2073Y13113I457J0*
G01*
X1073Y13113D02*
G75*
D01*
G03X1073Y13113I457J0*
G01*
X73Y13113D02*
G75*
D01*
G03X73Y13113I457J0*
G01*
X6723Y12316D02*
X6584Y12316D01*
X6584Y12177D01*
G74*
D01*
G03X6723Y12316I84J223*
G01*
X6441Y12400D02*
G75*
D01*
G03X6441Y12400I59J0*
G01*
X6584Y12623D02*
X6584Y12484D01*
X6723Y12484D01*
G74*
D01*
G03X6584Y12623I223J84*
G01*
X6277Y12484D02*
X6416Y12484D01*
X6416Y12623D01*
G74*
D01*
G03X6277Y12484I84J223*
G01*
X6416Y12177D02*
X6416Y12316D01*
X6277Y12316D01*
G74*
D01*
G03X6416Y12177I223J84*
G01*
X7623Y13113D02*
G75*
D01*
G03X7623Y13113I457J0*
G01*
X163Y10850D02*
G75*
D01*
G03X163Y10850I457J0*
G01*
X3073Y13113D02*
G75*
D01*
G03X3073Y13113I457J0*
G01*
X458Y9423D02*
X458Y9688D01*
X193Y9688D01*
G74*
D01*
G03X458Y9423I427J162*
G01*
X445Y9850D02*
G75*
D01*
G03X445Y9850I175J0*
G01*
X782Y10277D02*
X782Y10012D01*
X1047Y10012D01*
G74*
D01*
G03X782Y10277I427J162*
G01*
X193Y10012D02*
X458Y10012D01*
X458Y10277D01*
G74*
D01*
G03X193Y10012I162J427*
G01*
X1047Y9688D02*
X782Y9688D01*
X782Y9423D01*
G74*
D01*
G03X1047Y9688I162J427*
G01*
X6905Y15113D02*
G75*
D01*
G03X6905Y15113I175J0*
G01*
X7242Y15540D02*
X7242Y15275D01*
X7507Y15275D01*
G74*
D01*
G03X7242Y15540I427J162*
G01*
X2941Y8800D02*
G75*
D01*
G03X2941Y8800I59J0*
G01*
X3084Y9023D02*
X3084Y8884D01*
X3223Y8884D01*
G74*
D01*
G03X3084Y9023I223J84*
G01*
X3223Y8716D02*
X3084Y8716D01*
X3084Y8577D01*
G74*
D01*
G03X3223Y8716I84J223*
G01*
X2916Y8577D02*
X2916Y8716D01*
X2777Y8716D01*
G74*
D01*
G03X2916Y8577I223J84*
G01*
X516Y8408D02*
X724Y8408D01*
G75*
D01*
G03X1062Y8746I0J338*
G01*
X1062Y8954D01*
G74*
D01*
G03X724Y9292I338J0*
G01*
X516Y9292D01*
G75*
D01*
G03X178Y8954I0J-338*
G01*
X178Y8746D01*
G75*
D01*
G03X516Y8408I338J0*
G01*
X984Y7823D02*
X984Y7684D01*
X1123Y7684D01*
G74*
D01*
G03X984Y7823I223J84*
G01*
X1123Y7516D02*
X984Y7516D01*
X984Y7377D01*
G74*
D01*
G03X1123Y7516I84J223*
G01*
X841Y7600D02*
G75*
D01*
G03X841Y7600I59J0*
G01*
X677Y7684D02*
X816Y7684D01*
X816Y7823D01*
G74*
D01*
G03X677Y7684I84J223*
G01*
X816Y7377D02*
X816Y7516D01*
X677Y7516D01*
G74*
D01*
G03X816Y7377I223J84*
G01*
X6816Y6777D02*
X6816Y6916D01*
X6677Y6916D01*
G74*
D01*
G03X6816Y6777I223J84*
G01*
X6841Y7000D02*
G75*
D01*
G03X6841Y7000I59J0*
G01*
X6677Y7084D02*
X6816Y7084D01*
X6816Y7223D01*
G74*
D01*
G03X6677Y7084I84J223*
G01*
X6984Y7223D02*
X6984Y7084D01*
X7123Y7084D01*
G74*
D01*
G03X6984Y7223I223J84*
G01*
X7123Y6916D02*
X6984Y6916D01*
X6984Y6777D01*
G74*
D01*
G03X7123Y6916I84J223*
G01*
X5784Y4423D02*
X5784Y4284D01*
X5923Y4284D01*
G74*
D01*
G03X5784Y4423I223J84*
G01*
X5923Y4116D02*
X5784Y4116D01*
X5784Y3977D01*
G74*
D01*
G03X5923Y4116I84J223*
G01*
X5641Y4200D02*
G75*
D01*
G03X5641Y4200I59J0*
G01*
X5477Y4284D02*
X5616Y4284D01*
X5616Y4423D01*
G74*
D01*
G03X5477Y4284I84J223*
G01*
X5616Y3977D02*
X5616Y4116D01*
X5477Y4116D01*
G74*
D01*
G03X5616Y3977I223J84*
G01*
X1977Y4284D02*
X2116Y4284D01*
X2116Y4423D01*
G74*
D01*
G03X1977Y4284I84J223*
G01*
X2116Y3977D02*
X2116Y4116D01*
X1977Y4116D01*
G74*
D01*
G03X2116Y3977I223J84*
G01*
X163Y3760D02*
G75*
D01*
G03X163Y3760I457J0*
G01*
X8842Y1769D02*
G75*
D01*
G03X8842Y1769I138J0*
G01*
X1000Y5058D02*
X1921Y5979D01*
G75*
D01*
G03X1971Y6100I-121J121*
G01*
X1971Y8129D01*
X2503Y8662D01*
G75*
D01*
G03X2262Y8903I-3J238*
G01*
X1679Y8321D01*
G75*
D01*
G03X1629Y8200I121J-121*
G01*
X1629Y6171D01*
X660Y5202D01*
X516Y5202D01*
G75*
D01*
G03X178Y4864I0J-338*
G01*
X178Y4656D01*
G75*
D01*
G03X516Y4318I338J0*
G01*
X724Y4318D01*
G75*
D01*
G03X1062Y4656I0J338*
G01*
X1062Y4864D01*
G74*
D01*
G03X1000Y5058I338J0*
G01*
X2423Y4116D02*
X2284Y4116D01*
X2284Y3977D01*
G74*
D01*
G03X2423Y4116I84J223*
G01*
X2284Y4423D02*
X2284Y4284D01*
X2423Y4284D01*
G74*
D01*
G03X2284Y4423I223J84*
G01*
X2141Y4200D02*
G75*
D01*
G03X2141Y4200I59J0*
G01*
X888Y1130D02*
G75*
D01*
G03X1071Y830I-268J-370*
G01*
X3003Y2762D01*
G74*
D01*
G03X3238Y2999I3J238*
G01*
G75*
D01*
G03X2999Y3238I-138J101*
G01*
G74*
D01*
G03X2762Y3003I1J238*
G01*
X888Y1130D01*
X163Y1760D02*
G75*
D01*
G03X163Y1760I457J0*
G01*
X3894Y1642D02*
G75*
D01*
G03X3894Y1896I-335J127*
G01*
X4023Y1896D01*
X4023Y2103D01*
G74*
D01*
G03X3855Y1971I127J334*
G01*
G75*
D01*
G03X3855Y1567I-296J-202*
G01*
G74*
D01*
G03X4023Y1434I295J202*
G01*
X4023Y1642D01*
X3894Y1642D01*
X4012Y1769D02*
G75*
D01*
G03X4012Y1769I138J0*
G01*
X1047Y2598D02*
X782Y2598D01*
X782Y2333D01*
G74*
D01*
G03X1047Y2598I162J427*
G01*
X445Y2760D02*
G75*
D01*
G03X445Y2760I175J0*
G01*
X782Y3187D02*
X782Y2922D01*
X1047Y2922D01*
G74*
D01*
G03X782Y3187I427J162*
G01*
X458Y2333D02*
X458Y2598D01*
X193Y2598D01*
G74*
D01*
G03X458Y2333I427J162*
G01*
X193Y2922D02*
X458Y2922D01*
X458Y3187D01*
G74*
D01*
G03X193Y2922I162J427*
G01*
X4406Y1642D02*
X4277Y1642D01*
X4277Y1434D01*
G74*
D01*
G03X4445Y1567I127J335*
G01*
G75*
D01*
G03X4445Y1971I296J202*
G01*
G74*
D01*
G03X4277Y2103I295J202*
G01*
X4277Y1896D01*
X4406Y1896D01*
G75*
D01*
G03X4406Y1642I335J-127*
G01*
X2777Y8884D02*
X2916Y8884D01*
X2916Y9023D01*
G74*
D01*
G03X2777Y8884I84J223*
G01*
X13135Y151D02*
X51Y151D01*
X51Y15597D01*
X13135Y15597D01*
X13135Y151D01*
X620Y760D02*
X760Y760D01*
X3100Y3100D01*
X10200Y3700D02*
X10200Y5700D01*
X3800Y3500D02*
X10000Y3500D01*
X10200Y3700D01*
X7200Y3500D02*
X7200Y4100D01*
X8389Y1769D02*
X8389Y3489D01*
X620Y4760D02*
X620Y4920D01*
X3530Y14113D02*
X3687Y14113D01*
X4300Y13500D01*
X4300Y11800D02*
X4300Y13500D01*
X4300Y11800D02*
X3700Y11200D01*
X3700Y6800D01*
X3800Y6700D01*
X10200Y3700D02*
X10571Y3329D01*
X11411Y3329D01*
X2400Y7900D02*
X2400Y4900D01*
X2400Y7900D02*
X2600Y8100D01*
X2400Y4900D02*
X3800Y3500D01*
X1800Y8200D02*
X2500Y8900D01*
X620Y4920D02*
X1800Y6100D01*
X1800Y8200D01*
X8080Y14113D02*
X8487Y14113D01*
X8900Y13700D01*
X8900Y11400D01*
X9400Y10900D01*
G54D12*
X10200Y5700D03*
X7200Y4100D03*
X4900Y3500D03*
X5700Y4200D03*
X6900Y7000D03*
X3200Y4100D03*
X3000Y8800D03*
X2600Y8100D03*
X3000Y3000D03*
X2500Y8900D03*
X6500Y12400D03*
X3800Y6700D03*
X900Y7600D03*
X2200Y4200D03*
X9400Y10900D03*
X12500Y10500D03*
X10800Y9800D03*
X10900Y6800D03*
G54D13*
X8389Y1769D03*
X9571Y1769D03*
X8980Y1769D03*
X3559Y1769D03*
X4741Y1769D03*
X4150Y1769D03*
X11411Y3329D03*
X11411Y4511D03*
X11411Y3920D03*
G54D14*
X620Y3760D03*
X620Y2760D03*
X620Y760D03*
X620Y1760D03*
X620Y9850D03*
X620Y10850D03*
X10630Y14113D03*
X12630Y14113D03*
X11630Y14113D03*
X9630Y14113D03*
X10630Y15113D03*
X11630Y15113D03*
X9630Y15113D03*
X12630Y13113D03*
X11630Y13113D03*
X10630Y13113D03*
X9630Y13113D03*
X6080Y14113D03*
X8080Y14113D03*
X7080Y14113D03*
X5080Y14113D03*
X6080Y15113D03*
X7080Y15113D03*
X5080Y15113D03*
X8080Y13113D03*
X7080Y13113D03*
X6080Y13113D03*
X5080Y13113D03*
X1530Y14113D03*
X3530Y14113D03*
X2530Y14113D03*
X530Y14113D03*
X1530Y15113D03*
X2530Y15113D03*
X530Y15113D03*
X3530Y13113D03*
X2530Y13113D03*
X1530Y13113D03*
X530Y13113D03*
G54D15*
X620Y4760D03*
X620Y8850D03*
X12630Y15113D03*
X8080Y15113D03*
X3530Y15113D03*
G54D16*
X516Y4656D02*
X724Y4656D01*
X724Y4864D01*
X516Y4864D01*
X516Y4656D01*D02*
X516Y8746D02*
X724Y8746D01*
X724Y8954D01*
X516Y8954D01*
X516Y8746D01*D02*
X12526Y15009D02*
X12734Y15009D01*
X12734Y15217D01*
X12526Y15217D01*
X12526Y15009D01*D02*
X7976Y15009D02*
X8184Y15009D01*
X8184Y15217D01*
X7976Y15217D01*
X7976Y15009D01*D02*
X3426Y15009D02*
X3634Y15009D01*
X3634Y15217D01*
X3426Y15217D01*
X3426Y15009D01*D02*

M02*
